<svg width="51" height="50" viewBox="0 0 51 50" fill="none" xmlns="http://www.w3.org/2000/svg">
<path d="M25.8189 11.8066L26.7048 10.2734C27.2499 9.31641 28.4668 8.99414 29.4209 9.54102C30.3749 10.0879 30.6962 11.3086 30.151 12.2656L21.6327 27.0605H27.7951C29.7908 27.0605 30.9104 29.4141 30.0439 31.0449H11.9851C10.8851 31.0449 9.99917 30.1562 9.99917 29.0527C9.99917 27.9492 10.8851 27.0605 11.9851 27.0605H17.0475L23.5311 15.791L21.5062 12.2656C20.961 11.3086 21.2823 10.0977 22.2363 9.54102C23.1904 8.99414 24.3975 9.31641 24.9524 10.2734L25.8189 11.8066ZM18.1573 33.0957L16.2492 36.416C15.704 37.373 14.4871 37.6953 13.533 37.1484C12.579 36.6016 12.2577 35.3809 12.8029 34.4238L14.2242 31.9629C15.8208 31.4648 17.1253 31.8457 18.1573 33.0957ZM34.6 27.0703H39.7694C40.8695 27.0703 41.7554 27.959 41.7554 29.0625C41.7554 30.166 40.8695 31.0547 39.7694 31.0547H36.8975L38.8348 34.4238C39.38 35.3809 39.0587 36.5918 38.1047 37.1484C37.1506 37.6953 35.9435 37.373 35.3886 36.416C32.1273 30.7422 29.674 26.4941 28.0482 23.6621C26.3835 20.7812 27.5712 17.8906 28.7492 16.9141C30.0537 19.1602 32.0007 22.5488 34.6 27.0703ZM25.8286 0.78125C12.4914 0.78125 1.6853 11.6211 1.6853 25C1.6853 38.3789 12.4914 49.2188 25.8286 49.2188C39.1658 49.2188 49.9719 38.3789 49.9719 25C49.9719 11.6211 39.1658 0.78125 25.8286 0.78125ZM46.8566 25C46.8566 36.5918 37.5011 46.0938 25.8286 46.0938C14.2729 46.0938 4.80057 36.709 4.80057 25C4.80057 13.4082 14.1561 3.90625 25.8286 3.90625C37.3843 3.90625 46.8566 13.291 46.8566 25Z" fill="#4F48ED"/>
</svg>
