<svg width="50" height="49" viewBox="0 0 50 49" fill="none" xmlns="http://www.w3.org/2000/svg">
<path d="M39.2311 0H10.7689C4.82142 0 0 4.65933 0 10.4069V37.9122C0 43.6598 4.82142 48.3191 10.7689 48.3191H39.2311C45.1786 48.3191 50 43.6598 50 37.9122V10.4069C50 4.65933 45.1786 0 39.2311 0Z" fill="#4F48ED"/>
<path d="M10.1696 3.59058C9.73018 3.59116 9.30896 3.76489 8.99851 4.07358C8.68806 4.38227 8.51378 4.80068 8.51398 5.23685C8.51437 5.67315 8.68931 6.09143 9.00033 6.39974C9.31135 6.70804 9.733 6.88112 10.1726 6.88093C10.6121 6.88073 11.0336 6.70728 11.3443 6.3987C11.6551 6.09012 11.8297 5.67168 11.8297 5.23539V5.23245C11.8289 4.79616 11.6536 4.37803 11.3423 4.07C11.031 3.76197 10.6092 3.58926 10.1696 3.58985V3.59058ZM39.8253 3.59058C39.3859 3.59116 38.9647 3.76489 38.6542 4.07358C38.3438 4.38227 38.1695 4.80068 38.1697 5.23685C38.1701 5.67328 38.3451 6.09167 38.6563 6.39999C38.9675 6.70832 39.3893 6.88131 39.829 6.88093C40.2686 6.88073 40.6901 6.70728 41.0008 6.3987C41.3116 6.09012 41.4861 5.67168 41.4861 5.23539V5.23245C41.4853 4.79603 41.3099 4.37779 40.9985 4.06974C40.687 3.76169 40.265 3.58907 39.8253 3.58985V3.59058Z" fill="#3C37B6"/>
<path d="M10.1762 4.93741C9.6015 4.96721 9.63013 5.77448 9.63013 5.77448C12.7194 11.5885 18.4061 14.4395 24.9647 14.4402C31.5146 14.431 37.2578 11.5481 40.3427 5.74256C40.3427 5.74256 40.4645 4.64941 39.2608 5.02821C36.0974 10.096 30.7836 13.0938 24.9684 13.1031C19.143 13.1045 13.8475 10.1379 10.6782 5.06085C10.4727 4.96508 10.309 4.93032 10.1762 4.93741ZM31.0794 27.5339L29.3223 32.5918L27.6121 27.5375H25.9424L28.6375 34.8909H29.9373L31.6988 30.0607L33.4574 34.8909H34.7682L37.4582 27.5382H35.8303L34.1165 32.5925L32.3594 27.5346L31.0794 27.5339ZM21.7463 27.536L18.3371 34.8859H19.9393L20.5977 33.4629L20.6447 33.3558H24.1867L24.8811 34.8859H26.5273L23.1489 27.5793L23.1196 27.536H21.7463ZM46.4382 27.536V34.8816H47.9876V27.5367L46.4382 27.536ZM2.01236 27.5375V34.893H3.58303V31.9058H7.12806V34.8923H8.69947V27.5382H7.12879V30.5055H3.58377V27.5382L2.01236 27.5375ZM15.9679 27.5396V31.7497C15.9679 32.945 15.344 33.5835 14.2086 33.5835C13.068 33.5835 12.4397 32.9273 12.4397 31.6987V27.5438H10.8683V31.7497C10.8683 33.819 12.0794 35.0051 14.188 35.0051C16.3165 35.0051 17.5371 33.7963 17.5371 31.6887V27.5389L15.9679 27.5396ZM38.725 27.5424V34.8873H44.5695V33.548H40.2737V31.727H43.1295V30.3863H40.2737V28.8824H44.4205V27.5431L38.725 27.5424ZM22.4113 29.3967L23.5313 31.8597L23.6077 32.0292H21.2318L21.3067 31.8597L22.4113 29.3967Z" fill="white"/>
</svg>
