<svg width="76" height="58" viewBox="0 0 76 58" fill="none" xmlns="http://www.w3.org/2000/svg">
<path d="M76 9.66667C76 7.10291 74.9991 4.64415 73.2175 2.8313C71.4359 1.01845 69.0196 0 66.5 0H9.5C6.98045 0 4.56408 1.01845 2.78249 2.8313C1.00089 4.64415 0 7.10291 0 9.66667V14.5H76V9.66667ZM76 24.1667V48.3333C76 50.8971 74.9991 53.3558 73.2175 55.1687C71.4359 56.9816 69.0196 58 66.5 58H9.5C6.98045 58 4.56408 56.9816 2.78249 55.1687C1.00089 53.3558 0 50.8971 0 48.3333V24.1667H76ZM61.75 33.8333H57C55.7402 33.8333 54.532 34.3426 53.6412 35.249C52.7504 36.1554 52.25 37.3848 52.25 38.6667V43.5C52.25 44.7819 52.7504 46.0113 53.6412 46.9177C54.532 47.8241 55.7402 48.3333 57 48.3333H61.75C63.0098 48.3333 64.218 47.8241 65.1088 46.9177C65.9996 46.0113 66.5 44.7819 66.5 43.5V38.6667C66.5 37.3848 65.9996 36.1554 65.1088 35.249C64.218 34.3426 63.0098 33.8333 61.75 33.8333Z" fill="#7F7AF0"/>
</svg>
