<svg width="88" height="88" viewBox="0 0 88 88" fill="none" xmlns="http://www.w3.org/2000/svg">
<path d="M26.9251 66.1454L21.6145 60.8349C20.1536 59.3741 19.638 57.2602 20.2911 55.301C20.8067 53.7714 21.4942 51.7778 22.3191 49.492H4.13569C2.65765 49.492 1.28272 48.7015 0.543693 47.4125C-0.195331 46.1235 -0.178144 44.5424 0.578066 43.2706L9.60103 28.0609C11.8353 24.2971 15.8741 21.9941 20.2395 21.9941H34.3841C34.7966 21.3067 35.2091 20.6708 35.6216 20.0521C49.6974 -0.708834 70.665 -1.39628 83.1769 0.90667C85.1705 1.26758 86.7173 2.83152 87.0954 4.82512C89.3984 17.3539 88.6938 38.3038 67.9496 52.3793C67.348 52.7918 66.6949 53.2042 66.0075 53.6167V67.7609C66.0075 72.1262 63.7045 76.1822 59.9406 78.3992L44.7305 87.422C43.4586 88.1781 41.8775 88.1953 40.5885 87.4563C39.2995 86.7173 38.5089 85.3596 38.5089 83.8644V65.4408C36.0856 66.2829 33.9716 66.9704 32.3733 67.486C30.4484 68.1047 28.3516 67.5719 26.9079 66.1454H26.9251ZM66.0075 28.8686C69.8057 28.8686 72.8821 25.7923 72.8821 21.9941C72.8821 18.196 69.8057 15.1196 66.0075 15.1196C62.2092 15.1196 59.1328 18.196 59.1328 21.9941C59.1328 25.7923 62.2092 28.8686 66.0075 28.8686Z" fill="#4F48ED" fill-opacity="0.6"/>
</svg>
