<svg width="88" height="88" viewBox="0 0 88 88" fill="none" xmlns="http://www.w3.org/2000/svg">
<path d="M39.2391 80.627L8.18125 51.6317C7.45937 50.9614 6.77187 50.2395 6.13594 49.5004H21.0891C24.9734 49.5004 28.4797 47.1629 29.975 43.5707L31.7797 39.2395L40.2531 58.0598C40.9062 59.5207 42.3328 60.4661 43.9313 60.4832C45.5297 60.5004 46.9906 59.6239 47.7125 58.1973L55 43.6051L55.2922 44.1895C56.925 47.4551 60.2594 49.5176 63.9031 49.5176H81.8641C81.2281 50.2567 80.5406 50.9786 79.8187 51.6489L48.7609 80.627C47.4719 81.8301 45.7703 82.5004 44 82.5004C42.2297 82.5004 40.5281 81.8301 39.2391 80.627ZM86.5734 41.2504H63.8859C63.3703 41.2504 62.8891 40.9582 62.6484 40.4942L58.6609 32.5364C57.9562 31.1442 56.5297 30.2504 54.9656 30.2504C53.4016 30.2504 51.975 31.127 51.2703 32.5364L44.1547 46.7676L35.3891 27.1911C34.7188 25.6957 33.2062 24.7332 31.5734 24.7676C29.9406 24.802 28.4625 25.7817 27.8266 27.3114L22.3609 40.4254C22.1547 40.9411 21.6391 41.2676 21.0891 41.2676H2.75C2.30312 41.2676 1.89062 41.3364 1.49531 41.4567C0.515625 38.7067 0 35.7848 0 32.8114V31.8145C0 19.8004 8.67969 9.55668 20.5219 7.58012C28.3594 6.27387 36.3344 8.83481 41.9375 14.4379L44 16.5004L46.0625 14.4379C51.6656 8.83481 59.6406 6.27387 67.4781 7.58012C79.3203 9.55668 88 19.8004 88 31.8145V32.8114C88 35.7161 87.5188 38.5692 86.5734 41.2504Z" fill="#7F7AF0"/>
</svg>
