<svg width="70" height="70" viewBox="0 0 70 70" fill="none" xmlns="http://www.w3.org/2000/svg">
<path d="M37.1875 13.1245C26.4414 13.1245 17.3496 20.1656 14.2598 29.8726C18.8535 27.5484 24.0352 26.2495 29.5312 26.2495H41.5625C42.7656 26.2495 43.75 27.2339 43.75 28.437C43.75 29.6402 42.7656 30.6245 41.5625 30.6245H39.375H29.5312C27.2617 30.6245 25.0605 30.8843 22.9277 31.3628C19.3867 32.1695 16.1055 33.605 13.166 35.5601C5.23633 40.8511 0 49.8882 0 60.1558V62.3433C0 64.1617 1.46289 65.6245 3.28125 65.6245C5.09961 65.6245 6.5625 64.1617 6.5625 62.3433V60.1558C6.5625 53.4976 9.39258 47.5093 13.918 43.312C16.625 53.6343 26.0176 61.2495 37.1875 61.2495H37.3242C55.3848 61.1538 70 43.3531 70 21.4097C70 15.5855 68.9746 10.0484 67.1152 5.05814C66.7598 4.11478 65.3789 4.1558 64.9004 5.04447C62.3301 9.85697 57.2441 13.1245 51.4062 13.1245H37.1875Z" fill="#7F7AF0"/>
</svg>
