<svg width="52" height="52" viewBox="0 0 52 52" fill="none" xmlns="http://www.w3.org/2000/svg">
<path d="M40.8571 22.2857C47.0089 22.2857 52 17.2946 52 11.1429C52 4.99107 47.0089 0 40.8571 0C34.7054 0 29.7143 4.99107 29.7143 11.1429C29.7143 11.6071 29.7375 12.0714 29.7955 12.5241L18.8732 17.9795C16.8768 16.0411 14.1491 14.8571 11.1429 14.8571C4.99107 14.8571 0 19.8482 0 26C0 32.1518 4.99107 37.1429 11.1429 37.1429C14.1491 37.1429 16.8768 35.9589 18.8732 34.0205L29.7955 39.4759C29.7375 39.9286 29.7143 40.3812 29.7143 40.8571C29.7143 47.0089 34.7054 52 40.8571 52C47.0089 52 52 47.0089 52 40.8571C52 34.7054 47.0089 29.7143 40.8571 29.7143C37.8509 29.7143 35.1232 30.8982 33.1268 32.8366L22.2045 27.3812C22.2625 26.9286 22.2857 26.4759 22.2857 26C22.2857 25.5241 22.2625 25.0714 22.2045 24.6187L33.1268 19.1634C35.1232 21.1018 37.8509 22.2857 40.8571 22.2857Z" fill="#F7F7F7" fill-opacity="0.49"/>
</svg>
