<svg width="386" height="111" viewBox="0 0 386 111" fill="none" xmlns="http://www.w3.org/2000/svg">
<path d="M71.9651 42.9042L72.1998 43.3715L72.7174 43.4453L95.093 46.6385C95.0935 46.6386 95.0939 46.6386 95.0943 46.6387C96.1138 46.7881 96.7764 47.6991 96.6293 48.6355L96.6292 48.6355L96.6276 48.6467C96.5724 49.0262 96.3897 49.3789 96.1046 49.6534C96.1044 49.6536 96.1043 49.6538 96.1041 49.654L79.9147 65.153L79.5293 65.5219L79.6211 66.0475L83.4464 87.9356L83.4465 87.9363C83.6118 88.8775 82.9695 89.8008 81.9641 89.9711L81.9627 89.9713C81.5648 90.0392 81.1527 89.9755 80.805 89.7938L80.8005 89.7915L60.784 79.4576L60.3253 79.2208L59.8665 79.4576L39.85 89.7915L39.8485 89.7923C39.547 89.9486 39.2057 90.0194 38.8635 89.9954C38.5213 89.9715 38.1944 89.8539 37.9197 89.658C37.6451 89.4622 37.4344 89.1966 37.3088 88.8929C37.1833 88.5894 37.1472 88.2585 37.2039 87.9369L37.2041 87.9356L41.0294 66.0475L41.1212 65.5219L40.7359 65.153L24.5446 49.6522L24.5445 49.6521C24.2 49.3224 24.0064 48.8757 24.0002 48.4115C23.9939 47.9479 24.1749 47.4972 24.5093 47.159C24.7888 46.8795 25.1532 46.6952 25.552 46.6393L25.5544 46.639L47.9331 43.4453L48.4507 43.3715L48.6854 42.9042L58.6868 22.9943C58.6872 22.9935 58.6876 22.9927 58.688 22.9919C59.1349 22.1175 60.2329 21.7454 61.1406 22.1855L61.1418 22.186C61.5008 22.3595 61.7877 22.643 61.9608 22.9886L61.9613 22.9895L71.9651 42.9042Z" fill="#FFBF25" stroke="#FFBF25" stroke-width="2"/>
<path d="M160.415 42.9042L160.65 43.3715L161.167 43.4453L183.543 46.6385C183.543 46.6386 183.544 46.6386 183.544 46.6387C184.564 46.7881 185.226 47.6991 185.079 48.6355L185.079 48.6355L185.078 48.6467C185.022 49.0262 184.84 49.3789 184.555 49.6534C184.554 49.6536 184.554 49.6538 184.554 49.654L168.365 65.153L167.979 65.5219L168.071 66.0475L171.896 87.9356L171.896 87.9363C172.062 88.8775 171.419 89.8008 170.414 89.9711L170.413 89.9713C170.015 90.0392 169.603 89.9755 169.255 89.7938L169.25 89.7915L149.234 79.4576L148.775 79.2208L148.316 79.4576L128.3 89.7915L128.298 89.7923C127.997 89.9486 127.656 90.0194 127.313 89.9954C126.971 89.9715 126.644 89.8539 126.37 89.658C126.095 89.4622 125.884 89.1966 125.759 88.8929C125.633 88.5894 125.597 88.2585 125.654 87.9369L125.654 87.9356L129.479 66.0475L129.571 65.5219L129.186 65.153L112.995 49.6522L112.994 49.6521C112.65 49.3223 112.456 48.8757 112.45 48.4115C112.444 47.9479 112.625 47.4972 112.959 47.159C113.239 46.8795 113.603 46.6952 114.002 46.6393L114.004 46.639L136.383 43.4453L136.901 43.3715L137.135 42.9042L147.137 22.9943C147.137 22.9936 147.137 22.9929 147.138 22.9922C147.585 22.1176 148.683 21.7454 149.591 22.1855L149.592 22.186C149.951 22.3595 150.238 22.643 150.411 22.9886L150.411 22.9895L160.415 42.9042Z" fill="#FFBF25" stroke="#FFBF25" stroke-width="2"/>
<path d="M248.865 42.9042L249.1 43.3715L249.617 43.4453L271.993 46.6385C271.993 46.6386 271.994 46.6386 271.994 46.6387C273.014 46.7881 273.676 47.6991 273.529 48.6355L273.529 48.6355L273.527 48.6467C273.472 49.0262 273.29 49.3789 273.005 49.6534C273.004 49.6536 273.004 49.6538 273.004 49.654L256.815 65.153L256.429 65.5219L256.521 66.0475L260.346 87.9356L260.346 87.9363C260.512 88.8775 259.869 89.8008 258.864 89.9711L258.863 89.9713C258.465 90.0392 258.053 89.9755 257.705 89.7938L257.7 89.7915L237.684 79.4576L237.225 79.2208L236.766 79.4576L216.75 89.7915L216.748 89.7923C216.447 89.9486 216.106 90.0194 215.763 89.9954C215.421 89.9715 215.094 89.8539 214.82 89.658C214.545 89.4622 214.334 89.1966 214.209 88.8929C214.083 88.5894 214.047 88.2585 214.104 87.9369L214.104 87.9356L217.929 66.0475L218.021 65.5219L217.636 65.153L201.444 49.6522L201.444 49.6521C201.1 49.3224 200.906 48.8757 200.9 48.4115C200.894 47.9479 201.075 47.4972 201.409 47.159C201.689 46.8795 202.053 46.6952 202.452 46.6393L202.454 46.639L224.833 43.4453L225.351 43.3715L225.585 42.9042L235.587 22.9943C235.587 22.9935 235.588 22.9927 235.588 22.9919C236.035 22.1175 237.133 21.7454 238.041 22.1855L238.042 22.186C238.401 22.3595 238.688 22.643 238.861 22.9886L238.861 22.9895L248.865 42.9042Z" stroke="#FFBF25" stroke-width="2"/>
<path d="M337.315 42.9042L337.55 43.3715L338.067 43.4453L360.443 46.6385C360.443 46.6386 360.444 46.6386 360.444 46.6387C361.464 46.7881 362.126 47.6991 361.979 48.6355L361.979 48.6355L361.977 48.6467C361.922 49.0261 361.74 49.3787 361.455 49.6532C361.454 49.6534 361.454 49.6537 361.454 49.654L345.265 65.153L344.879 65.5219L344.971 66.0475L348.796 87.9356L348.796 87.9363C348.962 88.8775 348.319 89.8008 347.314 89.9711L347.313 89.9713C346.915 90.0392 346.503 89.9755 346.155 89.7938L346.15 89.7915L326.134 79.4576L325.675 79.2208L325.216 79.4576L305.2 89.7915L305.198 89.7923C304.897 89.9486 304.555 90.0194 304.213 89.9954C303.871 89.9715 303.544 89.8539 303.27 89.658C302.995 89.4622 302.784 89.1966 302.659 88.8929C302.533 88.5894 302.497 88.2585 302.554 87.9369L302.554 87.9356L306.379 66.0475L306.471 65.5219L306.086 65.153L289.894 49.6522L289.894 49.6521C289.55 49.3223 289.356 48.8757 289.35 48.4115C289.344 47.9479 289.525 47.4972 289.859 47.159C290.139 46.8795 290.503 46.6952 290.902 46.6393L290.904 46.639L313.283 43.4453L313.801 43.3715L314.035 42.9042L324.037 22.9943C324.037 22.9935 324.037 22.9927 324.038 22.9919C324.485 22.1175 325.583 21.7454 326.49 22.1855L326.492 22.186C326.851 22.3595 327.138 22.643 327.311 22.9886L327.311 22.9895L337.315 42.9042Z" stroke="#FFBF25" stroke-width="2"/>
<rect width="386" height="111" rx="30" fill="#FFBF25" fill-opacity="0.2"/>
</svg>
