<svg width="312" height="117" viewBox="0 0 312 117" fill="none" xmlns="http://www.w3.org/2000/svg">
<g filter="url(#filter0_d_507_8846)">
<rect x="5" y="3" width="301.011" height="107" rx="10" fill="white"/>
</g>
<path d="M19.167 46.7957H20.6386L24.0989 55.2474H24.2182L27.6784 46.7957H29.15V56.9775H27.9966V49.2417H27.8972L24.7153 56.9775H23.6017L20.4199 49.2417H20.3204V56.9775H19.167V46.7957ZM33.7102 57.1565C33.2263 57.1565 32.7871 57.0654 32.3927 56.8831C31.9983 56.6975 31.6851 56.4307 31.4531 56.0827C31.2211 55.7313 31.1051 55.3071 31.1051 54.8099C31.1051 54.3724 31.1912 54.0178 31.3636 53.746C31.5359 53.4709 31.7663 53.2555 32.0546 53.0997C32.343 52.9439 32.6612 52.8279 33.0092 52.7517C33.3605 52.6721 33.7135 52.6092 34.0681 52.5628C34.5322 52.5031 34.9083 52.4584 35.1967 52.4285C35.4884 52.3954 35.7005 52.3407 35.8331 52.2645C35.9689 52.1882 36.0369 52.0557 36.0369 51.8667V51.827C36.0369 51.3364 35.9027 50.9553 35.6342 50.6835C35.369 50.4117 34.9663 50.2758 34.4261 50.2758C33.866 50.2758 33.4268 50.3985 33.1086 50.6437C32.7904 50.889 32.5667 51.1508 32.4375 51.4292L31.3238 51.0315C31.5227 50.5675 31.7878 50.2062 32.1193 49.9477C32.454 49.6859 32.8186 49.5036 33.213 49.4008C33.6108 49.2948 34.0018 49.2417 34.3863 49.2417C34.6316 49.2417 34.9133 49.2716 35.2315 49.3312C35.553 49.3876 35.8629 49.5052 36.1612 49.6842C36.4628 49.8632 36.713 50.1333 36.9119 50.4946C37.1108 50.8559 37.2102 51.3398 37.2102 51.9463V56.9775H36.0369V55.9434H35.9772C35.8977 56.1092 35.7651 56.2865 35.5795 56.4754C35.3939 56.6643 35.147 56.8251 34.8387 56.9577C34.5305 57.0902 34.1543 57.1565 33.7102 57.1565ZM33.8892 56.1025C34.3532 56.1025 34.7443 56.0114 35.0625 55.8291C35.384 55.6468 35.6259 55.4115 35.7883 55.1231C35.954 54.8348 36.0369 54.5315 36.0369 54.2133V53.1395C35.9872 53.1991 35.8778 53.2538 35.7088 53.3035C35.543 53.3499 35.3508 53.3914 35.1321 53.4278C34.9166 53.461 34.7062 53.4908 34.5007 53.5173C34.2985 53.5405 34.1344 53.5604 34.0085 53.577C33.7036 53.6167 33.4185 53.6814 33.1534 53.7709C32.8915 53.857 32.6794 53.988 32.517 54.1636C32.3579 54.336 32.2784 54.5713 32.2784 54.8696C32.2784 55.2773 32.4292 55.5855 32.7308 55.7943C33.0357 55.9998 33.4218 56.1025 33.8892 56.1025ZM43.2892 59.8412V49.3412H44.4227V50.5542H44.5619C44.6481 50.4217 44.7674 50.2526 44.9199 50.0471C45.0757 49.8383 45.2977 49.6527 45.5861 49.4903C45.8777 49.3246 46.2722 49.2417 46.7693 49.2417C47.4123 49.2417 47.9791 49.4025 48.4696 49.724C48.9601 50.0455 49.3429 50.5012 49.618 51.0912C49.8931 51.6811 50.0307 52.3772 50.0307 53.1792C50.0307 53.988 49.8931 54.689 49.618 55.2822C49.3429 55.8722 48.9618 56.3296 48.4746 56.6544C47.9873 56.9759 47.4256 57.1366 46.7892 57.1366C46.2987 57.1366 45.9059 57.0554 45.6109 56.893C45.3159 56.7273 45.0889 56.54 44.9298 56.3312C44.7707 56.1191 44.6481 55.9434 44.5619 55.8042H44.4625V59.8412H43.2892ZM44.4426 53.1594C44.4426 53.7361 44.5271 54.2448 44.6962 54.6856C44.8652 55.1231 45.1121 55.4662 45.4369 55.7148C45.7617 55.96 46.1595 56.0827 46.6301 56.0827C47.1206 56.0827 47.53 55.9534 47.8581 55.6949C48.1895 55.433 48.4381 55.0817 48.6038 54.6409C48.7729 54.1968 48.8574 53.7029 48.8574 53.1594C48.8574 52.6224 48.7745 52.1385 48.6088 51.7077C48.4464 51.2735 48.1995 50.9304 47.868 50.6785C47.5399 50.4233 47.1273 50.2957 46.6301 50.2957C46.1528 50.2957 45.7518 50.4167 45.427 50.6586C45.1022 50.8973 44.8569 51.232 44.6912 51.6629C44.5255 52.0905 44.4426 52.5893 44.4426 53.1594ZM54.9227 57.1366C54.2333 57.1366 53.6284 56.9726 53.1081 56.6444C52.591 56.3163 52.1867 55.8573 51.895 55.2673C51.6067 54.6773 51.4625 53.988 51.4625 53.1991C51.4625 52.4037 51.6067 51.7093 51.895 51.116C52.1867 50.5228 52.591 50.0621 53.1081 49.7339C53.6284 49.4058 54.2333 49.2417 54.9227 49.2417C55.6121 49.2417 56.2153 49.4058 56.7324 49.7339C57.2527 50.0621 57.6571 50.5228 57.9454 51.116C58.2371 51.7093 58.3829 52.4037 58.3829 53.1991C58.3829 53.988 58.2371 54.6773 57.9454 55.2673C57.6571 55.8573 57.2527 56.3163 56.7324 56.6444C56.2153 56.9726 55.6121 57.1366 54.9227 57.1366ZM54.9227 56.0827C55.4464 56.0827 55.8773 55.9484 56.2153 55.68C56.5534 55.4115 56.8036 55.0585 56.966 54.621C57.1284 54.1835 57.2097 53.7095 57.2097 53.1991C57.2097 52.6887 57.1284 52.2131 56.966 51.7723C56.8036 51.3315 56.5534 50.9752 56.2153 50.7034C55.8773 50.4316 55.4464 50.2957 54.9227 50.2957C54.399 50.2957 53.9682 50.4316 53.6301 50.7034C53.292 50.9752 53.0418 51.3315 52.8794 51.7723C52.717 52.2131 52.6358 52.6887 52.6358 53.1991C52.6358 53.7095 52.717 54.1835 52.8794 54.621C53.0418 55.0585 53.292 55.4115 53.6301 55.68C53.9682 55.9484 54.399 56.0827 54.9227 56.0827ZM65.5831 51.0514L64.5291 51.3497C64.4628 51.174 64.365 51.0033 64.2358 50.8376C64.1098 50.6686 63.9375 50.5294 63.7187 50.42C63.5 50.3106 63.2199 50.2559 62.8785 50.2559C62.4112 50.2559 62.0217 50.3637 61.7102 50.5791C61.4019 50.7912 61.2478 51.0613 61.2478 51.3895C61.2478 51.6811 61.3539 51.9115 61.566 52.0805C61.7781 52.2496 62.1096 52.3904 62.5603 52.5031L63.6938 52.7815C64.3766 52.9472 64.8854 53.2008 65.2201 53.5422C65.5549 53.8802 65.7223 54.3161 65.7223 54.8497C65.7223 55.2872 65.5963 55.6783 65.3444 56.023C65.0958 56.3677 64.7478 56.6395 64.3004 56.8383C63.8529 57.0372 63.3326 57.1366 62.7393 57.1366C61.9604 57.1366 61.3158 56.9676 60.8054 56.6295C60.2949 56.2915 59.9718 55.7976 59.8359 55.148L60.9495 54.8696C61.0556 55.2806 61.2561 55.5888 61.5511 55.7943C61.8494 55.9998 62.2388 56.1025 62.7194 56.1025C63.2663 56.1025 63.7005 55.9865 64.022 55.7545C64.3468 55.5192 64.5092 55.2375 64.5092 54.9094C64.5092 54.6442 64.4164 54.4221 64.2308 54.2432C64.0452 54.0609 63.7601 53.925 63.3757 53.8355L62.1029 53.5372C61.4036 53.3715 60.8899 53.1146 60.5617 52.7666C60.2369 52.4153 60.0745 51.9761 60.0745 51.4491C60.0745 51.0183 60.1955 50.6371 60.4375 50.3057C60.6827 49.9742 61.0158 49.714 61.4367 49.5251C61.861 49.3362 62.3416 49.2417 62.8785 49.2417C63.6342 49.2417 64.2275 49.4075 64.6583 49.7389C65.0925 50.0703 65.4008 50.5078 65.5831 51.0514ZM67.4884 56.9775V49.3412H68.6617V56.9775H67.4884ZM68.085 48.0684C67.8563 48.0684 67.6591 47.9906 67.4934 47.8348C67.331 47.679 67.2498 47.4917 67.2498 47.273C67.2498 47.0542 67.331 46.867 67.4934 46.7112C67.6591 46.5554 67.8563 46.4775 68.085 46.4775C68.3137 46.4775 68.5092 46.5554 68.6717 46.7112C68.8374 46.867 68.9202 47.0542 68.9202 47.273C68.9202 47.4917 68.8374 47.679 68.6717 47.8348C68.5092 47.9906 68.3137 48.0684 68.085 48.0684ZM74.1317 49.3412V50.3355H70.1743V49.3412H74.1317ZM71.3277 47.5116H72.501V54.79C72.501 55.1215 72.5491 55.3701 72.6452 55.5358C72.7446 55.6982 72.8706 55.8076 73.023 55.8639C73.1788 55.9169 73.3429 55.9434 73.5152 55.9434C73.6445 55.9434 73.7505 55.9368 73.8334 55.9236C73.9163 55.907 73.9826 55.8937 74.0323 55.8838L74.2709 56.9378C74.1914 56.9676 74.0803 56.9974 73.9378 57.0273C73.7953 57.0604 73.6147 57.077 73.3959 57.077C73.0645 57.077 72.7397 57.0057 72.4215 56.8632C72.1066 56.7207 71.8448 56.5036 71.636 56.2119C71.4305 55.9202 71.3277 55.5523 71.3277 55.1082V47.5116ZM75.8966 56.9775V49.3412H77.0699V56.9775H75.8966ZM76.4932 48.0684C76.2645 48.0684 76.0673 47.9906 75.9016 47.8348C75.7392 47.679 75.658 47.4917 75.658 47.273C75.658 47.0542 75.7392 46.867 75.9016 46.7112C76.0673 46.5554 76.2645 46.4775 76.4932 46.4775C76.7219 46.4775 76.9175 46.5554 77.0799 46.7112C77.2456 46.867 77.3284 47.0542 77.3284 47.273C77.3284 47.4917 77.2456 47.679 77.0799 47.8348C76.9175 47.9906 76.7219 48.0684 76.4932 48.0684ZM82.3212 57.1366C81.6318 57.1366 81.0269 56.9726 80.5065 56.6444C79.9895 56.3163 79.5851 55.8573 79.2935 55.2673C79.0051 54.6773 78.8609 53.988 78.8609 53.1991C78.8609 52.4037 79.0051 51.7093 79.2935 51.116C79.5851 50.5228 79.9895 50.0621 80.5065 49.7339C81.0269 49.4058 81.6318 49.2417 82.3212 49.2417C83.0105 49.2417 83.6138 49.4058 84.1308 49.7339C84.6512 50.0621 85.0555 50.5228 85.3439 51.116C85.6356 51.7093 85.7814 52.4037 85.7814 53.1991C85.7814 53.988 85.6356 54.6773 85.3439 55.2673C85.0555 55.8573 84.6512 56.3163 84.1308 56.6444C83.6138 56.9726 83.0105 57.1366 82.3212 57.1366ZM82.3212 56.0827C82.8448 56.0827 83.2757 55.9484 83.6138 55.68C83.9518 55.4115 84.2021 55.0585 84.3645 54.621C84.5269 54.1835 84.6081 53.7095 84.6081 53.1991C84.6081 52.6887 84.5269 52.2131 84.3645 51.7723C84.2021 51.3315 83.9518 50.9752 83.6138 50.7034C83.2757 50.4316 82.8448 50.2957 82.3212 50.2957C81.7975 50.2957 81.3666 50.4316 81.0285 50.7034C80.6905 50.9752 80.4402 51.3315 80.2778 51.7723C80.1154 52.2131 80.0342 52.6887 80.0342 53.1991C80.0342 53.7095 80.1154 54.1835 80.2778 54.621C80.4402 55.0585 80.6905 55.4115 81.0285 55.68C81.3666 55.9484 81.7975 56.0827 82.3212 56.0827ZM88.7457 52.3838V56.9775H87.5724V49.3412H88.7059V50.5344H88.8054C88.9843 50.1466 89.2561 49.835 89.6207 49.5997C89.9853 49.3611 90.4559 49.2417 91.0326 49.2417C91.5497 49.2417 92.0021 49.3478 92.3899 49.5599C92.7777 49.7687 93.0793 50.0869 93.2947 50.5145C93.5101 50.9387 93.6179 51.4756 93.6179 52.1253V56.9775H92.4446V52.2048C92.4446 51.6049 92.2888 51.1376 91.9772 50.8028C91.6657 50.4648 91.2381 50.2957 90.6946 50.2957C90.32 50.2957 89.9853 50.3769 89.6903 50.5393C89.3986 50.7017 89.1683 50.9387 88.9992 51.2503C88.8302 51.5618 88.7457 51.9397 88.7457 52.3838ZM101.947 57.1565C101.463 57.1565 101.023 57.0654 100.629 56.8831C100.235 56.6975 99.9214 56.4307 99.6894 56.0827C99.4574 55.7313 99.3414 55.3071 99.3414 54.8099C99.3414 54.3724 99.4276 54.0178 99.5999 53.746C99.7723 53.4709 100.003 53.2555 100.291 53.0997C100.579 52.9439 100.898 52.8279 101.246 52.7517C101.597 52.6721 101.95 52.6092 102.304 52.5628C102.768 52.5031 103.145 52.4584 103.433 52.4285C103.725 52.3954 103.937 52.3407 104.069 52.2645C104.205 52.1882 104.273 52.0557 104.273 51.8667V51.827C104.273 51.3364 104.139 50.9553 103.871 50.6835C103.605 50.4117 103.203 50.2758 102.662 50.2758C102.102 50.2758 101.663 50.3985 101.345 50.6437C101.027 50.889 100.803 51.1508 100.674 51.4292L99.5601 51.0315C99.759 50.5675 100.024 50.2062 100.356 49.9477C100.69 49.6859 101.055 49.5036 101.449 49.4008C101.847 49.2948 102.238 49.2417 102.623 49.2417C102.868 49.2417 103.15 49.2716 103.468 49.3312C103.789 49.3876 104.099 49.5052 104.398 49.6842C104.699 49.8632 104.949 50.1333 105.148 50.4946C105.347 50.8559 105.447 51.3398 105.447 51.9463V56.9775H104.273V55.9434H104.214C104.134 56.1092 104.001 56.2865 103.816 56.4754C103.63 56.6643 103.383 56.8251 103.075 56.9577C102.767 57.0902 102.391 57.1565 101.947 57.1565ZM102.125 56.1025C102.59 56.1025 102.981 56.0114 103.299 55.8291C103.62 55.6468 103.862 55.4115 104.025 55.1231C104.19 54.8348 104.273 54.5315 104.273 54.2133V53.1395C104.223 53.1991 104.114 53.2538 103.945 53.3035C103.779 53.3499 103.587 53.3914 103.368 53.4278C103.153 53.461 102.942 53.4908 102.737 53.5173C102.535 53.5405 102.371 53.5604 102.245 53.577C101.94 53.6167 101.655 53.6814 101.39 53.7709C101.128 53.857 100.916 53.988 100.753 54.1636C100.594 54.336 100.515 54.5713 100.515 54.8696C100.515 55.2773 100.665 55.5855 100.967 55.7943C101.272 55.9998 101.658 56.1025 102.125 56.1025ZM110.69 57.1366C109.974 57.1366 109.358 56.9676 108.841 56.6295C108.324 56.2915 107.926 55.8258 107.648 55.2325C107.369 54.6392 107.23 53.9614 107.23 53.1991C107.23 52.4236 107.373 51.7391 107.658 51.1459C107.946 50.5493 108.347 50.0836 108.861 49.7488C109.378 49.4108 109.981 49.2417 110.67 49.2417C111.207 49.2417 111.691 49.3412 112.122 49.54C112.553 49.7389 112.906 50.0173 113.181 50.3753C113.456 50.7332 113.627 51.1508 113.693 51.6281H112.52C112.43 51.2801 112.231 50.9719 111.923 50.7034C111.618 50.4316 111.207 50.2957 110.69 50.2957C110.233 50.2957 109.832 50.415 109.487 50.6537C109.146 50.889 108.879 51.2221 108.687 51.653C108.498 52.0805 108.403 52.5827 108.403 53.1594C108.403 53.7493 108.496 54.2631 108.682 54.7006C108.871 55.1381 109.136 55.4778 109.477 55.7197C109.822 55.9617 110.226 56.0827 110.69 56.0827C110.995 56.0827 111.272 56.0296 111.521 55.9236C111.769 55.8175 111.98 55.665 112.152 55.4662C112.324 55.2673 112.447 55.0287 112.52 54.7503H113.693C113.627 55.201 113.463 55.607 113.201 55.9683C112.942 56.3263 112.599 56.6113 112.172 56.8234C111.748 57.0322 111.254 57.1366 110.69 57.1366ZM118.729 49.3412V50.3355H114.772V49.3412H118.729ZM115.925 47.5116H117.099V54.79C117.099 55.1215 117.147 55.3701 117.243 55.5358C117.342 55.6982 117.468 55.8076 117.621 55.8639C117.776 55.9169 117.941 55.9434 118.113 55.9434C118.242 55.9434 118.348 55.9368 118.431 55.9236C118.514 55.907 118.58 55.8937 118.63 55.8838L118.869 56.9378C118.789 56.9676 118.678 56.9974 118.535 57.0273C118.393 57.0604 118.212 57.077 117.994 57.077C117.662 57.077 117.337 57.0057 117.019 56.8632C116.704 56.7207 116.442 56.5036 116.234 56.2119C116.028 55.9202 115.925 55.5523 115.925 55.1082V47.5116ZM125.307 53.8554V49.3412H126.48V56.9775H125.307V55.6849H125.227C125.048 56.0727 124.77 56.4025 124.392 56.6743C124.014 56.9427 123.537 57.077 122.96 57.077C122.483 57.077 122.059 56.9726 121.687 56.7638C121.316 56.5516 121.025 56.2335 120.812 55.8092C120.6 55.3817 120.494 54.8431 120.494 54.1934V49.3412H121.668V54.1139C121.668 54.6707 121.823 55.1148 122.135 55.4463C122.45 55.7777 122.851 55.9434 123.338 55.9434C123.63 55.9434 123.926 55.8689 124.228 55.7197C124.533 55.5706 124.788 55.3419 124.994 55.0336C125.202 54.7254 125.307 54.3327 125.307 53.8554ZM131.831 57.1366C131.095 57.1366 130.46 56.9742 129.927 56.6494C129.396 56.3213 128.987 55.8639 128.699 55.2773C128.414 54.6873 128.271 54.0012 128.271 53.219C128.271 52.4368 128.414 51.7474 128.699 51.1508C128.987 50.5509 129.388 50.0836 129.902 49.7488C130.419 49.4108 131.022 49.2417 131.711 49.2417C132.109 49.2417 132.502 49.308 132.89 49.4406C133.277 49.5732 133.63 49.7886 133.949 50.0869C134.267 50.3819 134.52 50.773 134.709 51.2602C134.898 51.7474 134.993 52.3473 134.993 53.0599V53.5571H129.106V52.5429H133.799C133.799 52.112 133.713 51.7275 133.541 51.3895C133.372 51.0514 133.13 50.7846 132.815 50.589C132.504 50.3935 132.136 50.2957 131.711 50.2957C131.244 50.2957 130.84 50.4117 130.498 50.6437C130.16 50.8724 129.9 51.1707 129.718 51.5386C129.536 51.9065 129.444 52.3009 129.444 52.7219V53.398C129.444 53.9747 129.544 54.4636 129.743 54.8646C129.945 55.2623 130.225 55.5656 130.583 55.7744C130.941 55.9799 131.357 56.0827 131.831 56.0827C132.139 56.0827 132.417 56.0396 132.666 55.9534C132.918 55.8639 133.135 55.7313 133.317 55.5557C133.5 55.3767 133.64 55.1546 133.74 54.8895L134.873 55.2077C134.754 55.5921 134.554 55.9302 134.272 56.2219C133.99 56.5102 133.642 56.7356 133.228 56.898C132.813 57.0571 132.348 57.1366 131.831 57.1366ZM137.951 46.7957V56.9775H136.777V46.7957H137.951ZM141.273 46.7957V56.9775H140.1V46.7957H141.273ZM146.624 57.1366C145.888 57.1366 145.253 56.9742 144.72 56.6494C144.189 56.3213 143.78 55.8639 143.492 55.2773C143.207 54.6873 143.064 54.0012 143.064 53.219C143.064 52.4368 143.207 51.7474 143.492 51.1508C143.78 50.5509 144.181 50.0836 144.695 49.7488C145.212 49.4108 145.815 49.2417 146.504 49.2417C146.902 49.2417 147.295 49.308 147.683 49.4406C148.07 49.5732 148.423 49.7886 148.742 50.0869C149.06 50.3819 149.313 50.773 149.502 51.2602C149.691 51.7474 149.786 52.3473 149.786 53.0599V53.5571H143.899V52.5429H148.592C148.592 52.112 148.506 51.7275 148.334 51.3895C148.165 51.0514 147.923 50.7846 147.608 50.589C147.297 50.3935 146.929 50.2957 146.504 50.2957C146.037 50.2957 145.633 50.4117 145.291 50.6437C144.953 50.8724 144.693 51.1707 144.511 51.5386C144.328 51.9065 144.237 52.3009 144.237 52.7219V53.398C144.237 53.9747 144.337 54.4636 144.536 54.8646C144.738 55.2623 145.018 55.5656 145.376 55.7744C145.734 55.9799 146.15 56.0827 146.624 56.0827C146.932 56.0827 147.21 56.0396 147.459 55.9534C147.711 55.8639 147.928 55.7313 148.11 55.5557C148.293 55.3767 148.433 55.1546 148.533 54.8895L149.666 55.2077C149.547 55.5921 149.346 55.9302 149.065 56.2219C148.783 56.5102 148.435 56.7356 148.021 56.898C147.606 57.0571 147.141 57.1366 146.624 57.1366Z" fill="#5C627D"/>
<path d="M44.0531 21.7031H40.8713L42.5617 11.5213H45.8031C46.7908 11.5213 47.6045 11.7285 48.2442 12.1428C48.8872 12.5571 49.3346 13.1487 49.5865 13.9176C49.8417 14.6866 49.8798 15.6046 49.7009 16.6719C49.5285 17.7192 49.1938 18.6191 48.6966 19.3714C48.2027 20.1205 47.5631 20.6972 46.7776 21.1016C45.9954 21.5026 45.0872 21.7031 44.0531 21.7031ZM42.2882 20.6094H44.0929C44.9348 20.6094 45.6606 20.4437 46.2705 20.1122C46.8836 19.7808 47.3775 19.3085 47.752 18.6953C48.1298 18.0821 48.3884 17.3546 48.5276 16.5128C48.6668 15.7041 48.6535 15.0097 48.4878 14.4297C48.3254 13.8464 48.0055 13.3989 47.5283 13.0874C47.0543 12.7725 46.4196 12.6151 45.6242 12.6151H43.6107L42.2882 20.6094ZM53.4992 11.5213L53.3599 12.4162C53.3169 12.688 53.2191 12.978 53.0666 13.2862C52.9175 13.5911 52.7252 13.8878 52.4899 14.1761C52.2546 14.4612 51.9878 14.7098 51.6895 14.9219L51.1327 14.4048C51.3912 14.1065 51.6215 13.7966 51.8237 13.4751C52.0292 13.1503 52.1635 12.804 52.2264 12.4361L52.3855 11.5213H53.4992ZM55.6494 21.8622C54.9467 21.8622 54.3584 21.6948 53.8844 21.3601C53.4105 21.0253 53.0757 20.5563 52.8802 19.9531C52.688 19.3499 52.6565 18.6473 52.7857 17.8452C52.9117 17.063 53.1619 16.3819 53.5364 15.8018C53.9143 15.2185 54.3833 14.7678 54.9434 14.4496C55.5068 14.1281 56.1266 13.9673 56.8028 13.9673C57.5054 13.9673 58.0921 14.1364 58.5627 14.4744C59.0367 14.8092 59.3714 15.2798 59.567 15.8864C59.7625 16.4896 59.7957 17.1955 59.6664 18.0043C59.5405 18.7798 59.2869 19.4576 58.9058 20.0376C58.5279 20.6143 58.0589 21.0634 57.4988 21.3849C56.942 21.7031 56.3255 21.8622 55.6494 21.8622ZM55.6693 20.8082C56.2062 20.8082 56.6719 20.6707 57.0663 20.3956C57.464 20.1205 57.7855 19.7576 58.0308 19.3068C58.2793 18.8561 58.4467 18.3688 58.5329 17.8452C58.6124 17.348 58.6091 16.8857 58.5229 16.4581C58.4368 16.0272 58.2528 15.6809 57.9711 15.419C57.6894 15.1539 57.2933 15.0213 56.7829 15.0213C56.246 15.0213 55.777 15.1605 55.3759 15.4389C54.9782 15.7173 54.6567 16.0836 54.4114 16.5376C54.1662 16.9917 54.0021 17.4806 53.9193 18.0043C53.8397 18.5014 53.8414 18.9638 53.9242 19.3913C54.0104 19.8156 54.1943 20.1586 54.4761 20.4205C54.7611 20.679 55.1588 20.8082 55.6693 20.8082ZM66.1804 18.581L66.9361 14.0668H68.1094L66.8367 21.7031H65.6634L65.8821 20.4105H65.8026C65.564 20.7983 65.2309 21.1281 64.8033 21.3999C64.3757 21.6683 63.8736 21.8026 63.2969 21.8026C62.8196 21.8026 62.412 21.6982 62.0739 21.4893C61.7391 21.2772 61.5005 20.959 61.358 20.5348C61.2188 20.1072 61.2022 19.5687 61.3083 18.919L62.1236 14.0668H63.2969L62.5015 18.8395C62.412 19.3963 62.4965 19.8404 62.755 20.1719C63.0135 20.5033 63.3864 20.669 63.8736 20.669C64.1653 20.669 64.4735 20.5945 64.7983 20.4453C65.1265 20.2962 65.4181 20.0675 65.6733 19.7592C65.9319 19.451 66.1009 19.0582 66.1804 18.581ZM64.7884 13.0327L63.635 10.7259H65.0071L65.8225 13.0327H64.7884ZM72.4459 24.5668L74.2058 14.0668H75.3394L75.1405 15.2798H75.2797C75.3858 15.1473 75.5316 14.9782 75.7172 14.7727C75.9061 14.5639 76.1597 14.3783 76.4778 14.2159C76.7993 14.0502 77.2087 13.9673 77.7058 13.9673C78.3488 13.9673 78.8874 14.1281 79.3216 14.4496C79.7558 14.7711 80.0624 15.2268 80.2413 15.8168C80.4203 16.4067 80.4435 17.1027 80.3109 17.9048C80.1784 18.7135 79.9248 19.4145 79.5503 20.0078C79.1758 20.5978 78.7184 21.0552 78.1781 21.38C77.6379 21.7015 77.0496 21.8622 76.4132 21.8622C75.9227 21.8622 75.5432 21.781 75.2747 21.6186C75.0063 21.4529 74.8107 21.2656 74.6881 21.0568C74.5654 20.8447 74.471 20.669 74.4047 20.5298H74.3053L73.6291 24.5668H72.4459ZM74.7229 17.8849C74.6301 18.4616 74.6301 18.9704 74.7229 19.4112C74.819 19.8487 75.0096 20.1918 75.2946 20.4403C75.583 20.6856 75.9625 20.8082 76.4331 20.8082C76.9236 20.8082 77.3528 20.679 77.7207 20.4205C78.092 20.1586 78.3969 19.8073 78.6355 19.3665C78.8775 18.9223 79.0448 18.4285 79.1376 17.8849C79.2238 17.348 79.2205 16.8641 79.1277 16.4332C79.0349 15.9991 78.846 15.656 78.5609 15.4041C78.2759 15.1489 77.8848 15.0213 77.3876 15.0213C76.9104 15.0213 76.4878 15.1423 76.1199 15.3842C75.7553 15.6229 75.4537 15.9576 75.2151 16.3885C74.9797 16.8161 74.8157 17.3149 74.7229 17.8849ZM83.6954 21.8821C83.2114 21.8821 82.7872 21.791 82.4226 21.6087C82.058 21.4231 81.7879 21.1562 81.6123 20.8082C81.4366 20.4569 81.3885 20.0327 81.4681 19.5355C81.5443 19.098 81.6918 18.7434 81.9106 18.4716C82.1293 18.1965 82.3945 17.9811 82.706 17.8253C83.0209 17.6662 83.3589 17.5485 83.7202 17.4723C84.0848 17.3928 84.4477 17.3314 84.809 17.2884C85.2796 17.2287 85.6624 17.1823 85.9574 17.1491C86.2524 17.116 86.4745 17.0613 86.6236 16.9851C86.7728 16.9089 86.8639 16.7779 86.8971 16.5923V16.5526C86.9766 16.0653 86.912 15.6858 86.7032 15.4141C86.4944 15.139 86.1215 15.0014 85.5846 15.0014C85.0277 15.0014 84.5621 15.1241 84.1875 15.3693C83.813 15.6146 83.5363 15.8764 83.3573 16.1548L82.3232 15.7571C82.595 15.2931 82.9198 14.9318 83.2976 14.6733C83.6755 14.4115 84.0715 14.2292 84.4858 14.1264C84.9001 14.0204 85.2995 13.9673 85.684 13.9673C85.9293 13.9673 86.206 13.9972 86.5142 14.0568C86.8225 14.1132 87.1108 14.2308 87.3793 14.4098C87.6511 14.5888 87.8549 14.8589 87.9908 15.2202C88.13 15.5814 88.1499 16.0653 88.0505 16.6719L87.2152 21.7031H86.0419L86.2209 20.669H86.1613C86.0552 20.8348 85.8928 21.0121 85.674 21.201C85.4586 21.3899 85.1852 21.5507 84.8537 21.6832C84.5256 21.8158 84.1395 21.8821 83.6954 21.8821ZM84.0334 20.8281C84.4974 20.8281 84.9034 20.737 85.2515 20.5547C85.6028 20.3724 85.8845 20.1371 86.0966 19.8487C86.3121 19.5604 86.4463 19.2571 86.4993 18.9389L86.6783 17.8651C86.6186 17.9247 86.501 17.9794 86.3253 18.0291C86.1497 18.0755 85.9508 18.117 85.7287 18.1534C85.51 18.1866 85.2962 18.2164 85.0874 18.2429C84.8819 18.2661 84.7162 18.286 84.5902 18.3026C84.2787 18.3423 83.982 18.407 83.7003 18.4964C83.4219 18.5826 83.1866 18.7135 82.9944 18.8892C82.8054 19.0616 82.6878 19.2969 82.6414 19.5952C82.5718 20.0028 82.6695 20.3111 82.9347 20.5199C83.1998 20.7254 83.5661 20.8281 84.0334 20.8281ZM89.3568 21.7031L90.6295 14.0668H91.763L91.5641 15.2202H91.6437C91.8425 14.8423 92.1458 14.5357 92.5535 14.3004C92.9612 14.0651 93.3937 13.9474 93.8511 13.9474C93.9406 13.9474 94.0483 13.9491 94.1742 13.9524C94.3002 13.9524 94.3979 13.9574 94.4675 13.9673L94.2687 15.1605C94.2289 15.1506 94.1394 15.1357 94.0002 15.1158C93.861 15.0926 93.7119 15.081 93.5528 15.081C93.1816 15.081 92.8385 15.1589 92.5237 15.3146C92.2088 15.4671 91.9453 15.6792 91.7332 15.951C91.521 16.2195 91.3852 16.526 91.3255 16.8707L90.53 21.7031H89.3568ZM99.6653 14.0668L99.5063 15.0611H95.5489L95.708 14.0668H99.6653ZM97.1597 12.2372H98.333L97.1199 19.5156C97.0669 19.8471 97.0751 20.0956 97.1447 20.2614C97.2177 20.4238 97.327 20.5331 97.4729 20.5895C97.622 20.6425 97.7828 20.669 97.9551 20.669C98.0844 20.669 98.1904 20.6624 98.2733 20.6491C98.3562 20.6326 98.4224 20.6193 98.4722 20.6094L98.5517 21.6634C98.4622 21.6932 98.3412 21.723 98.1888 21.7528C98.0396 21.786 97.8557 21.8026 97.6369 21.8026C97.3055 21.8026 96.9939 21.7313 96.7023 21.5888C96.4106 21.4463 96.1869 21.2292 96.0311 20.9375C95.8753 20.6458 95.8339 20.2779 95.9068 19.8338L97.1597 12.2372ZM103.257 21.8622C102.525 21.8622 101.92 21.6998 101.443 21.375C100.965 21.0469 100.632 20.5895 100.443 20.0028C100.254 19.4129 100.225 18.7268 100.354 17.9446C100.483 17.1624 100.74 16.473 101.125 15.8764C101.509 15.2765 101.988 14.8092 102.561 14.4744C103.135 14.1364 103.764 13.9673 104.451 13.9673C104.848 13.9673 105.231 14.0336 105.599 14.1662C105.967 14.2988 106.285 14.5142 106.553 14.8125C106.822 15.1075 107.009 15.4986 107.115 15.9858C107.221 16.473 107.215 17.0729 107.095 17.7855L107.016 18.2827H101.129L101.289 17.2685H105.982C106.058 16.8376 106.038 16.4531 105.922 16.1151C105.809 15.777 105.612 15.5102 105.33 15.3146C105.052 15.1191 104.699 15.0213 104.272 15.0213C103.831 15.0213 103.42 15.1406 103.039 15.3793C102.657 15.6146 102.339 15.9129 102.084 16.2741C101.829 16.6321 101.67 16.9967 101.607 17.3679L101.468 18.2429C101.368 18.8759 101.383 19.3797 101.512 19.7543C101.645 20.1288 101.875 20.3989 102.203 20.5646C102.531 20.727 102.942 20.8082 103.436 20.8082C103.751 20.8082 104.041 20.7652 104.306 20.679C104.571 20.5895 104.808 20.4569 105.017 20.2812C105.226 20.1023 105.402 19.8802 105.544 19.6151L106.618 19.9332C106.436 20.3177 106.179 20.6558 105.848 20.9474C105.519 21.2358 105.135 21.4612 104.694 21.6236C104.257 21.7827 103.778 21.8622 103.257 21.8622ZM108.033 21.7031L108.192 20.8082L113.442 15.2401L113.462 15.1605H109.265L109.444 14.0668H115.152L114.993 15.0014L109.862 20.5298L109.842 20.6094H114.197L114.018 21.7031H108.033ZM121.016 16.7912L120.837 17.8849H116.382L116.561 16.7912H121.016ZM129.782 14.0668L125.685 21.7031H124.492L122.941 14.0668H124.164L125.258 20.152H125.337L128.46 14.0668H129.782ZM132.936 21.8622C132.234 21.8622 131.646 21.6948 131.172 21.3601C130.698 21.0253 130.363 20.5563 130.167 19.9531C129.975 19.3499 129.944 18.6473 130.073 17.8452C130.199 17.063 130.449 16.3819 130.824 15.8018C131.201 15.2185 131.67 14.7678 132.231 14.4496C132.794 14.1281 133.414 13.9673 134.09 13.9673C134.793 13.9673 135.379 14.1364 135.85 14.4744C136.324 14.8092 136.659 15.2798 136.854 15.8864C137.05 16.4896 137.083 17.1955 136.954 18.0043C136.828 18.7798 136.574 19.4576 136.193 20.0376C135.815 20.6143 135.346 21.0634 134.786 21.3849C134.229 21.7031 133.613 21.8622 132.936 21.8622ZM132.956 20.8082C133.493 20.8082 133.959 20.6707 134.353 20.3956C134.751 20.1205 135.073 19.7576 135.318 19.3068C135.566 18.8561 135.734 18.3688 135.82 17.8452C135.9 17.348 135.896 16.8857 135.81 16.4581C135.724 16.0272 135.54 15.6809 135.258 15.419C134.976 15.1539 134.58 15.0213 134.07 15.0213C133.533 15.0213 133.064 15.1605 132.663 15.4389C132.265 15.7173 131.944 16.0836 131.699 16.5376C131.453 16.9917 131.289 17.4806 131.206 18.0043C131.127 18.5014 131.128 18.9638 131.211 19.3913C131.298 19.8156 131.481 20.1586 131.763 20.4205C132.048 20.679 132.446 20.8082 132.956 20.8082ZM143.468 18.581L144.223 14.0668H145.397L144.124 21.7031H142.951L143.169 20.4105H143.09C142.851 20.7983 142.518 21.1281 142.09 21.3999C141.663 21.6683 141.161 21.8026 140.584 21.8026C140.107 21.8026 139.699 21.6982 139.361 21.4893C139.026 21.2772 138.788 20.959 138.645 20.5348C138.506 20.1072 138.489 19.5687 138.595 18.919L139.411 14.0668H140.584L139.789 18.8395C139.699 19.3963 139.784 19.8404 140.042 20.1719C140.301 20.5033 140.674 20.669 141.161 20.669C141.452 20.669 141.761 20.5945 142.085 20.4453C142.414 20.2962 142.705 20.0675 142.96 19.7592C143.219 19.451 143.388 19.0582 143.468 18.581ZM152.676 15.777L151.563 16.0753C151.523 15.8963 151.453 15.724 151.354 15.5582C151.258 15.3892 151.108 15.2517 150.906 15.1456C150.707 15.0362 150.436 14.9815 150.091 14.9815C149.624 14.9815 149.218 15.0893 148.873 15.3047C148.528 15.5168 148.331 15.7869 148.281 16.1151C148.232 16.4034 148.298 16.6338 148.48 16.8061C148.662 16.9785 148.967 17.1193 149.395 17.2287L150.489 17.5071C151.145 17.6761 151.612 17.9297 151.891 18.2678C152.172 18.6025 152.269 19.0384 152.179 19.5753C152.106 20.0128 151.916 20.4039 151.607 20.7486C151.299 21.0933 150.905 21.3651 150.424 21.5639C149.943 21.7628 149.408 21.8622 148.818 21.8622C148.033 21.8622 147.413 21.6932 146.959 21.3551C146.505 21.0137 146.263 20.5199 146.233 19.8736L147.406 19.5952C147.436 20.0028 147.582 20.3111 147.844 20.5199C148.109 20.7254 148.48 20.8281 148.957 20.8281C149.504 20.8281 149.96 20.7121 150.325 20.4801C150.689 20.2448 150.896 19.9631 150.946 19.6349C150.996 19.3665 150.943 19.1428 150.787 18.9638C150.635 18.7848 150.369 18.6506 149.992 18.5611L148.778 18.2628C148.102 18.0937 147.628 17.8352 147.357 17.4872C147.088 17.1392 146.999 16.7017 147.088 16.1747C147.161 15.7438 147.347 15.3627 147.645 15.0312C147.947 14.6998 148.324 14.4396 148.778 14.2507C149.236 14.0618 149.733 13.9673 150.27 13.9673C151.026 13.9673 151.591 14.133 151.965 14.4645C152.34 14.7926 152.577 15.2301 152.676 15.777ZM159.533 18.8395L159.553 18.7202C159.663 18.1004 159.812 17.6065 160.001 17.2386C160.193 16.8707 160.423 16.5741 160.692 16.3487C160.963 16.12 161.273 15.9096 161.621 15.7173C161.833 15.598 162.031 15.4571 162.213 15.2947C162.399 15.129 162.554 14.9401 162.68 14.728C162.81 14.5125 162.894 14.2723 162.934 14.0071C162.987 13.6823 162.959 13.4006 162.849 13.1619C162.74 12.9233 162.569 12.7393 162.337 12.6101C162.105 12.4808 161.833 12.4162 161.522 12.4162C161.25 12.4162 160.977 12.4725 160.702 12.5852C160.43 12.6979 160.188 12.8752 159.976 13.1172C159.767 13.3591 159.619 13.6757 159.533 14.0668H158.28C158.4 13.5033 158.625 13.0211 158.957 12.62C159.291 12.219 159.694 11.9124 160.165 11.7003C160.639 11.4882 161.144 11.3821 161.681 11.3821C162.264 11.3821 162.753 11.4981 163.148 11.7301C163.542 11.9621 163.825 12.2803 163.998 12.6847C164.17 13.089 164.213 13.5497 164.127 14.0668C164.067 14.4313 163.956 14.7611 163.794 15.0561C163.635 15.3511 163.431 15.6146 163.182 15.8466C162.937 16.0786 162.655 16.2808 162.337 16.4531C162.019 16.6321 161.756 16.821 161.547 17.0199C161.338 17.2154 161.171 17.4491 161.045 17.7209C160.919 17.9893 160.819 18.3224 160.746 18.7202L160.726 18.8395H159.533ZM159.832 21.7827C159.58 21.7827 159.369 21.6965 159.2 21.5241C159.031 21.3485 158.943 21.1364 158.937 20.8878C158.933 20.6392 159.021 20.4321 159.2 20.2663C159.379 20.0973 159.59 20.0128 159.832 20.0128C160.077 20.0128 160.289 20.099 160.468 20.2713C160.647 20.4437 160.733 20.6491 160.726 20.8878C160.723 21.0535 160.68 21.2043 160.597 21.3402C160.518 21.4761 160.41 21.5838 160.274 21.6634C160.141 21.7429 159.994 21.7827 159.832 21.7827Z" fill="#5C627D"/>
<path d="M25.5696 22.7245C26.8262 21.2463 29.6923 17.6636 29.6923 15.6512C29.6923 13.2106 27.5856 11.2305 24.989 11.2305C22.3924 11.2305 20.2857 13.2106 20.2857 15.6512C20.2857 17.6636 23.1518 21.2463 24.4084 22.7245C24.7097 23.0768 25.2683 23.0768 25.5696 22.7245ZM24.989 17.1248C24.1243 17.1248 23.4212 16.464 23.4212 15.6512C23.4212 14.8385 24.1243 14.1777 24.989 14.1777C25.8537 14.1777 26.5568 14.8385 26.5568 15.6512C26.5568 16.464 25.8537 17.1248 24.989 17.1248Z" fill="#5C627D"/>
<line opacity="0.7" x1="18.4341" y1="34.2471" x2="287.874" y2="34.2471" stroke="#888EA8" stroke-linecap="round"/>
<g filter="url(#filter1_d_507_8846)">
<path d="M5 72.374H306.011V100C306.011 105.523 301.534 110 296.011 110H15C9.47717 110 5 105.523 5 100V72.374Z" fill="#4F48ED"/>
</g>
<path d="M20.5668 95.7803V85.5985H24.0071C24.8059 85.5985 25.4588 85.7426 25.9659 86.031C26.4763 86.316 26.8542 86.7021 27.0994 87.1894C27.3447 87.6766 27.4673 88.2201 27.4673 88.82C27.4673 89.42 27.3447 89.9652 27.0994 90.4557C26.8575 90.9462 26.4829 91.3373 25.9758 91.629C25.4687 91.9173 24.8191 92.0615 24.027 92.0615H21.5611V90.9678H23.9872C24.5341 90.9678 24.9732 90.8733 25.3047 90.6844C25.6361 90.4955 25.8764 90.2403 26.0256 89.9188C26.178 89.594 26.2543 89.2277 26.2543 88.82C26.2543 88.4124 26.178 88.0478 26.0256 87.7263C25.8764 87.4048 25.6345 87.1529 25.2997 86.9706C24.965 86.785 24.5208 86.6922 23.9673 86.6922H21.7997V95.7803H20.5668ZM29.2944 95.7803V88.1439H30.4279V89.2973H30.5075C30.6467 88.9195 30.8986 88.6129 31.2631 88.3776C31.6277 88.1423 32.0387 88.0246 32.4961 88.0246C32.5823 88.0246 32.69 88.0262 32.8192 88.0296C32.9485 88.0329 33.0463 88.0378 33.1126 88.0445V89.2377C33.0728 89.2277 32.9816 89.2128 32.8391 89.1929C32.6999 89.1697 32.5524 89.1581 32.3967 89.1581C32.0254 89.1581 31.694 89.236 31.4023 89.3918C31.114 89.5442 30.8853 89.7564 30.7163 90.0281C30.5505 90.2966 30.4677 90.6032 30.4677 90.9479V95.7803H29.2944ZM37.4727 95.9394C36.7369 95.9394 36.1021 95.777 35.5685 95.4521C35.0382 95.124 34.6289 94.6666 34.3405 94.08C34.0555 93.49 33.913 92.8039 33.913 92.0218C33.913 91.2396 34.0555 90.5502 34.3405 89.9536C34.6289 89.3537 35.0299 88.8863 35.5437 88.5516C36.0607 88.2135 36.6639 88.0445 37.3533 88.0445C37.7511 88.0445 38.1438 88.1108 38.5316 88.2433C38.9194 88.3759 39.2724 88.5914 39.5905 88.8896C39.9087 89.1846 40.1623 89.5757 40.3512 90.0629C40.5401 90.5502 40.6346 91.1501 40.6346 91.8627V92.3598H34.7482V91.3456H39.4414C39.4414 90.9147 39.3552 90.5303 39.1829 90.1922C39.0138 89.8541 38.7719 89.5873 38.457 89.3918C38.1455 89.1962 37.7776 89.0985 37.3533 89.0985C36.886 89.0985 36.4816 89.2145 36.1403 89.4465C35.8022 89.6752 35.542 89.9735 35.3597 90.3414C35.1774 90.7093 35.0863 91.1037 35.0863 91.5246V92.2007C35.0863 92.7774 35.1857 93.2663 35.3846 93.6673C35.5868 94.0651 35.8668 94.3683 36.2248 94.5771C36.5827 94.7826 36.9987 94.8854 37.4727 94.8854C37.7809 94.8854 38.0593 94.8423 38.3079 94.7561C38.5598 94.6666 38.7769 94.5341 38.9592 94.3584C39.1414 94.1794 39.2823 93.9574 39.3817 93.6922L40.5153 94.0104C40.3959 94.3949 40.1954 94.7329 39.9137 95.0246C39.632 95.3129 39.284 95.5383 38.8697 95.7007C38.4554 95.8598 37.9897 95.9394 37.4727 95.9394ZM36.7567 87.1098L37.9698 84.803H39.342L37.7908 87.1098H36.7567ZM48.4313 88.1439L45.6074 95.7803H44.4142L41.5904 88.1439H42.8631L44.9711 94.2291H45.0506L47.1586 88.1439H48.4313ZM52.8088 95.9394C52.1194 95.9394 51.5145 95.7753 50.9941 95.4472C50.4771 95.1191 50.0727 94.66 49.7811 94.07C49.4927 93.4801 49.3485 92.7907 49.3485 92.0019C49.3485 91.2064 49.4927 90.512 49.7811 89.9188C50.0727 89.3255 50.4771 88.8648 50.9941 88.5367C51.5145 88.2085 52.1194 88.0445 52.8088 88.0445C53.4982 88.0445 54.1014 88.2085 54.6184 88.5367C55.1388 88.8648 55.5431 89.3255 55.8315 89.9188C56.1232 90.512 56.269 91.2064 56.269 92.0019C56.269 92.7907 56.1232 93.4801 55.8315 94.07C55.5431 94.66 55.1388 95.1191 54.6184 95.4472C54.1014 95.7753 53.4982 95.9394 52.8088 95.9394ZM52.8088 94.8854C53.3324 94.8854 53.7633 94.7512 54.1014 94.4827C54.4394 94.2142 54.6897 93.8612 54.8521 93.4237C55.0145 92.9862 55.0957 92.5123 55.0957 92.0019C55.0957 91.4914 55.0145 91.0158 54.8521 90.575C54.6897 90.1342 54.4394 89.7779 54.1014 89.5061C53.7633 89.2343 53.3324 89.0985 52.8088 89.0985C52.2851 89.0985 51.8542 89.2343 51.5162 89.5061C51.1781 89.7779 50.9278 90.1342 50.7654 90.575C50.603 91.0158 50.5218 91.4914 50.5218 92.0019C50.5218 92.5123 50.603 92.9862 50.7654 93.4237C50.9278 93.8612 51.1781 94.2142 51.5162 94.4827C51.8542 94.7512 52.2851 94.8854 52.8088 94.8854ZM58.06 95.7803V88.1439H59.2333V95.7803H58.06ZM58.6566 86.8712C58.4279 86.8712 58.2307 86.7933 58.065 86.6375C57.9026 86.4817 57.8214 86.2945 57.8214 86.0757C57.8214 85.857 57.9026 85.6697 58.065 85.5139C58.2307 85.3582 58.4279 85.2803 58.6566 85.2803C58.8853 85.2803 59.0808 85.3582 59.2432 85.5139C59.409 85.6697 59.4918 85.857 59.4918 86.0757C59.4918 86.2945 59.409 86.4817 59.2432 86.6375C59.0808 86.7933 58.8853 86.8712 58.6566 86.8712ZM61.3823 95.7803V88.1439H62.5158V89.2973H62.5953C62.7345 88.9195 62.9864 88.6129 63.351 88.3776C63.7156 88.1423 64.1266 88.0246 64.584 88.0246C64.6702 88.0246 64.7779 88.0262 64.9071 88.0296C65.0364 88.0329 65.1342 88.0378 65.2005 88.0445V89.2377C65.1607 89.2277 65.0695 89.2128 64.927 89.1929C64.7878 89.1697 64.6403 89.1581 64.4845 89.1581C64.1133 89.1581 63.7819 89.236 63.4902 89.3918C63.2019 89.5442 62.9732 89.7564 62.8041 90.0281C62.6384 90.2966 62.5556 90.6032 62.5556 90.9479V95.7803H61.3823ZM75.3413 92.6581V88.1439H76.5146V95.7803H75.3413V94.4877H75.2617C75.0827 94.8754 74.8043 95.2052 74.4265 95.477C74.0486 95.7455 73.5714 95.8797 72.9947 95.8797C72.5174 95.8797 72.0932 95.7753 71.7219 95.5665C71.3507 95.3544 71.0591 95.0362 70.8469 94.6119C70.6348 94.1844 70.5288 93.6458 70.5288 92.9962V88.1439H71.7021V92.9166C71.7021 93.4735 71.8578 93.9176 72.1694 94.249C72.4843 94.5805 72.8853 94.7462 73.3725 94.7462C73.6642 94.7462 73.9608 94.6716 74.2624 94.5225C74.5673 94.3733 74.8226 94.1446 75.028 93.8364C75.2369 93.5281 75.3413 93.1354 75.3413 92.6581ZM79.8368 91.1865V95.7803H78.6635V88.1439H79.797V89.3371H79.8965C80.0755 88.9493 80.3472 88.6378 80.7118 88.4024C81.0764 88.1638 81.547 88.0445 82.1238 88.0445C82.6408 88.0445 83.0932 88.1505 83.481 88.3627C83.8688 88.5715 84.1704 88.8896 84.3858 89.3172C84.6013 89.7414 84.709 90.2784 84.709 90.928V95.7803H83.5357V91.0075C83.5357 90.4076 83.3799 89.9403 83.0684 89.6056C82.7568 89.2675 82.3292 89.0985 81.7857 89.0985C81.4112 89.0985 81.0764 89.1797 80.7814 89.3421C80.4898 89.5045 80.2594 89.7414 80.0904 90.053C79.9213 90.3646 79.8368 90.7424 79.8368 91.1865ZM90.7905 95.7803V88.1439H91.9638V95.7803H90.7905ZM91.3871 86.8712C91.1584 86.8712 90.9612 86.7933 90.7954 86.6375C90.633 86.4817 90.5518 86.2945 90.5518 86.0757C90.5518 85.857 90.633 85.6697 90.7954 85.5139C90.9612 85.3582 91.1584 85.2803 91.3871 85.2803C91.6158 85.2803 91.8113 85.3582 91.9737 85.5139C92.1394 85.6697 92.2223 85.857 92.2223 86.0757C92.2223 86.2945 92.1394 86.4817 91.9737 86.6375C91.8113 86.7933 91.6158 86.8712 91.3871 86.8712ZM97.4338 88.1439V89.1382H93.4764V88.1439H97.4338ZM94.6298 86.3144H95.8031V93.5928C95.8031 93.9242 95.8511 94.1728 95.9473 94.3385C96.0467 94.5009 96.1726 94.6103 96.3251 94.6666C96.4809 94.7197 96.6449 94.7462 96.8173 94.7462C96.9466 94.7462 97.0526 94.7396 97.1355 94.7263C97.2183 94.7097 97.2846 94.6965 97.3343 94.6865L97.573 95.7405C97.4934 95.7703 97.3824 95.8002 97.2399 95.83C97.0974 95.8631 96.9167 95.8797 96.698 95.8797C96.3665 95.8797 96.0417 95.8084 95.7235 95.6659C95.4087 95.5234 95.1468 95.3063 94.938 95.0146C94.7325 94.723 94.6298 94.3551 94.6298 93.911V86.3144ZM99.1987 95.7803V88.1439H100.372V95.7803H99.1987ZM99.7953 86.8712C99.5666 86.8712 99.3694 86.7933 99.2037 86.6375C99.0412 86.4817 98.96 86.2945 98.96 86.0757C98.96 85.857 99.0412 85.6697 99.2037 85.5139C99.3694 85.3582 99.5666 85.2803 99.7953 85.2803C100.024 85.2803 100.22 85.3582 100.382 85.5139C100.548 85.6697 100.63 85.857 100.63 86.0757C100.63 86.2945 100.548 86.4817 100.382 86.6375C100.22 86.7933 100.024 86.8712 99.7953 86.8712ZM103.694 91.1865V95.7803H102.521V88.1439H103.654V89.3371H103.754C103.933 88.9493 104.205 88.6378 104.569 88.4024C104.934 88.1638 105.404 88.0445 105.981 88.0445C106.498 88.0445 106.951 88.1505 107.338 88.3627C107.726 88.5715 108.028 88.8896 108.243 89.3172C108.459 89.7414 108.566 90.2784 108.566 90.928V95.7803H107.393V91.0075C107.393 90.4076 107.237 89.9403 106.926 89.6056C106.614 89.2675 106.187 89.0985 105.643 89.0985C105.269 89.0985 104.934 89.1797 104.639 89.3421C104.347 89.5045 104.117 89.7414 103.948 90.053C103.779 90.3646 103.694 90.7424 103.694 91.1865ZM113.912 95.9394C113.176 95.9394 112.542 95.777 112.008 95.4521C111.478 95.124 111.068 94.6666 110.78 94.08C110.495 93.49 110.352 92.8039 110.352 92.0218C110.352 91.2396 110.495 90.5502 110.78 89.9536C111.068 89.3537 111.469 88.8863 111.983 88.5516C112.5 88.2135 113.103 88.0445 113.793 88.0445C114.191 88.0445 114.583 88.1108 114.971 88.2433C115.359 88.3759 115.712 88.5914 116.03 88.8896C116.348 89.1846 116.602 89.5757 116.791 90.0629C116.98 90.5502 117.074 91.1501 117.074 91.8627V92.3598H111.188V91.3456H115.881C115.881 90.9147 115.795 90.5303 115.622 90.1922C115.453 89.8541 115.211 89.5873 114.896 89.3918C114.585 89.1962 114.217 89.0985 113.793 89.0985C113.325 89.0985 112.921 89.2145 112.58 89.4465C112.242 89.6752 111.981 89.9735 111.799 90.3414C111.617 90.7093 111.526 91.1037 111.526 91.5246V92.2007C111.526 92.7774 111.625 93.2663 111.824 93.6673C112.026 94.0651 112.306 94.3683 112.664 94.5771C113.022 94.7826 113.438 94.8854 113.912 94.8854C114.22 94.8854 114.499 94.8423 114.747 94.7561C114.999 94.6666 115.216 94.5341 115.399 94.3584C115.581 94.1794 115.722 93.9574 115.821 93.6922L116.955 94.0104C116.835 94.3949 116.635 94.7329 116.353 95.0246C116.071 95.3129 115.723 95.5383 115.309 95.7007C114.895 95.8598 114.429 95.9394 113.912 95.9394ZM113.196 87.1098L114.409 84.803H115.781L114.23 87.1098H113.196ZM118.859 95.7803V88.1439H119.992V89.2973H120.072C120.211 88.9195 120.463 88.6129 120.828 88.3776C121.192 88.1423 121.603 88.0246 122.061 88.0246C122.147 88.0246 122.254 88.0262 122.384 88.0296C122.513 88.0329 122.611 88.0378 122.677 88.0445V89.2377C122.637 89.2277 122.546 89.2128 122.404 89.1929C122.264 89.1697 122.117 89.1581 121.961 89.1581C121.59 89.1581 121.258 89.236 120.967 89.3918C120.678 89.5442 120.45 89.7564 120.281 90.0281C120.115 90.2966 120.032 90.6032 120.032 90.9479V95.7803H118.859ZM126.315 95.9593C125.831 95.9593 125.392 95.8681 124.998 95.6858C124.603 95.5002 124.29 95.2334 124.058 94.8854C123.826 94.5341 123.71 94.1098 123.71 93.6127C123.71 93.1752 123.796 92.8205 123.968 92.5487C124.141 92.2736 124.371 92.0582 124.659 91.9024C124.948 91.7467 125.266 91.6307 125.614 91.5544C125.965 91.4749 126.318 91.4119 126.673 91.3655C127.137 91.3058 127.513 91.2611 127.801 91.2313C128.093 91.1981 128.305 91.1434 128.438 91.0672C128.574 90.991 128.642 90.8584 128.642 90.6695V90.6297C128.642 90.1392 128.507 89.758 128.239 89.4862C127.974 89.2145 127.571 89.0786 127.031 89.0786C126.471 89.0786 126.032 89.2012 125.713 89.4465C125.395 89.6917 125.172 89.9536 125.042 90.232L123.929 89.8343C124.127 89.3702 124.393 89.009 124.724 88.7504C125.059 88.4886 125.423 88.3063 125.818 88.2036C126.216 88.0975 126.607 88.0445 126.991 88.0445C127.236 88.0445 127.518 88.0743 127.836 88.134C128.158 88.1903 128.468 88.308 128.766 88.4869C129.068 88.6659 129.318 88.936 129.517 89.2973C129.716 89.6586 129.815 90.1425 129.815 90.749V95.7803H128.642V94.7462H128.582C128.502 94.9119 128.37 95.0892 128.184 95.2781C127.999 95.4671 127.752 95.6278 127.444 95.7604C127.135 95.893 126.759 95.9593 126.315 95.9593ZM126.494 94.9053C126.958 94.9053 127.349 94.8141 127.667 94.6318C127.989 94.4495 128.231 94.2142 128.393 93.9259C128.559 93.6375 128.642 93.3343 128.642 93.0161V91.9422C128.592 92.0019 128.483 92.0566 128.314 92.1063C128.148 92.1527 127.956 92.1941 127.737 92.2306C127.521 92.2637 127.311 92.2935 127.105 92.32C126.903 92.3432 126.739 92.3631 126.613 92.3797C126.308 92.4195 126.023 92.4841 125.758 92.5736C125.496 92.6598 125.284 92.7907 125.122 92.9664C124.963 93.1387 124.883 93.374 124.883 93.6723C124.883 94.08 125.034 94.3882 125.336 94.597C125.641 94.8025 126.027 94.9053 126.494 94.9053ZM131.956 95.7803V88.1439H133.13V95.7803H131.956ZM132.553 86.8712C132.324 86.8712 132.127 86.7933 131.961 86.6375C131.799 86.4817 131.718 86.2945 131.718 86.0757C131.718 85.857 131.799 85.6697 131.961 85.5139C132.127 85.3582 132.324 85.2803 132.553 85.2803C132.782 85.2803 132.977 85.3582 133.14 85.5139C133.305 85.6697 133.388 85.857 133.388 86.0757C133.388 86.2945 133.305 86.4817 133.14 86.6375C132.977 86.7933 132.782 86.8712 132.553 86.8712ZM135.279 95.7803V88.1439H136.412V89.2973H136.492C136.631 88.9195 136.883 88.6129 137.248 88.3776C137.612 88.1423 138.023 88.0246 138.48 88.0246C138.567 88.0246 138.674 88.0262 138.804 88.0296C138.933 88.0329 139.031 88.0378 139.097 88.0445V89.2377C139.057 89.2277 138.966 89.2128 138.824 89.1929C138.684 89.1697 138.537 89.1581 138.381 89.1581C138.01 89.1581 137.678 89.236 137.387 89.3918C137.098 89.5442 136.87 89.7564 136.701 90.0281C136.535 90.2966 136.452 90.6032 136.452 90.9479V95.7803H135.279ZM143.457 95.9394C142.721 95.9394 142.087 95.777 141.553 95.4521C141.023 95.124 140.613 94.6666 140.325 94.08C140.04 93.49 139.897 92.8039 139.897 92.0218C139.897 91.2396 140.04 90.5502 140.325 89.9536C140.613 89.3537 141.014 88.8863 141.528 88.5516C142.045 88.2135 142.648 88.0445 143.338 88.0445C143.735 88.0445 144.128 88.1108 144.516 88.2433C144.904 88.3759 145.257 88.5914 145.575 88.8896C145.893 89.1846 146.147 89.5757 146.336 90.0629C146.524 90.5502 146.619 91.1501 146.619 91.8627V92.3598H140.733V91.3456H145.426C145.426 90.9147 145.34 90.5303 145.167 90.1922C144.998 89.8541 144.756 89.5873 144.441 89.3918C144.13 89.1962 143.762 89.0985 143.338 89.0985C142.87 89.0985 142.466 89.2145 142.125 89.4465C141.787 89.6752 141.526 89.9735 141.344 90.3414C141.162 90.7093 141.071 91.1037 141.071 91.5246V92.2007C141.071 92.7774 141.17 93.2663 141.369 93.6673C141.571 94.0651 141.851 94.3683 142.209 94.5771C142.567 94.7826 142.983 94.8854 143.457 94.8854C143.765 94.8854 144.044 94.8423 144.292 94.7561C144.544 94.6666 144.761 94.5341 144.944 94.3584C145.126 94.1794 145.267 93.9574 145.366 93.6922L146.5 94.0104C146.38 94.3949 146.18 94.7329 145.898 95.0246C145.616 95.3129 145.268 95.5383 144.854 95.7007C144.44 95.8598 143.974 95.9394 143.457 95.9394Z" fill="#F0F0F0"/>
<g clip-path="url(#clip0_507_8846)">
<path d="M290.373 90.6815H285.86V86.5139C285.86 84.9068 283.161 84.9068 283.161 86.5139V90.6815H278.648C276.908 90.6815 276.908 93.1738 278.648 93.1738H283.161V97.3414C283.161 98.9485 285.86 98.9485 285.86 97.3414V93.1738H290.373C292.113 93.1738 292.113 90.6815 290.373 90.6815Z" fill="#FAFAFA"/>
</g>
<path d="M237.558 57.3301V50.7846H238.529V51.8074H238.615C238.751 51.4579 238.971 51.1866 239.275 50.9934C239.579 50.7974 239.944 50.6994 240.37 50.6994C240.802 50.6994 241.161 50.7974 241.448 50.9934C241.738 51.1866 241.964 51.4579 242.126 51.8074H242.194C242.362 51.4693 242.613 51.2008 242.948 51.002C243.284 50.8002 243.686 50.6994 244.154 50.6994C244.74 50.6994 245.218 50.8826 245.59 51.2491C245.963 51.6127 246.149 52.1795 246.149 52.9494V57.3301H245.143V52.9494C245.143 52.4664 245.011 52.1213 244.747 51.9139C244.482 51.7065 244.171 51.6028 243.813 51.6028C243.353 51.6028 242.997 51.742 242.744 52.0204C242.491 52.296 242.365 52.6454 242.365 53.0687V57.3301H241.342V52.8471C241.342 52.475 241.221 52.1752 240.98 51.948C240.738 51.7179 240.427 51.6028 240.046 51.6028C239.785 51.6028 239.541 51.6724 239.313 51.8116C239.089 51.9508 238.907 52.144 238.768 52.3912C238.632 52.6355 238.563 52.9181 238.563 53.2392V57.3301H237.558ZM250.647 57.4664C250.056 57.4664 249.537 57.3258 249.091 57.0446C248.648 56.7633 248.301 56.3699 248.051 55.8642C247.804 55.3585 247.681 54.7676 247.681 54.0914C247.681 53.4096 247.804 52.8145 248.051 52.3059C248.301 51.7974 248.648 51.4025 249.091 51.1213C249.537 50.84 250.056 50.6994 250.647 50.6994C251.237 50.6994 251.755 50.84 252.198 51.1213C252.644 51.4025 252.99 51.7974 253.237 52.3059C253.487 52.8145 253.612 53.4096 253.612 54.0914C253.612 54.7676 253.487 55.3585 253.237 55.8642C252.99 56.3699 252.644 56.7633 252.198 57.0446C251.755 57.3258 251.237 57.4664 250.647 57.4664ZM250.647 56.563C251.095 56.563 251.465 56.448 251.755 56.2179C252.044 55.9877 252.259 55.6852 252.398 55.3102C252.537 54.9352 252.607 54.5289 252.607 54.0914C252.607 53.6539 252.537 53.2463 252.398 52.8684C252.259 52.4906 252.044 52.1852 251.755 51.9522C251.465 51.7193 251.095 51.6028 250.647 51.6028C250.198 51.6028 249.828 51.7193 249.539 51.9522C249.249 52.1852 249.034 52.4906 248.895 52.8684C248.756 53.2463 248.686 53.6539 248.686 54.0914C248.686 54.5289 248.756 54.9352 248.895 55.3102C249.034 55.6852 249.249 55.9877 249.539 56.2179C249.828 56.448 250.198 56.563 250.647 56.563ZM257.619 57.4664C257.074 57.4664 256.592 57.3287 256.175 57.0531C255.757 56.7747 255.43 56.3826 255.195 55.877C254.959 55.3684 254.841 54.7676 254.841 54.0744C254.841 53.3869 254.959 52.7903 255.195 52.2846C255.43 51.7789 255.758 51.3883 256.179 51.1127C256.599 50.8372 257.085 50.6994 257.636 50.6994C258.062 50.6994 258.399 50.7704 258.646 50.9125C258.896 51.0517 259.087 51.2108 259.217 51.3897C259.351 51.5659 259.454 51.7108 259.528 51.8244H259.614V48.6028H260.619V57.3301H259.648V56.3244H259.528C259.454 56.4437 259.349 56.5943 259.213 56.7761C259.077 56.9551 258.882 57.1156 258.629 57.2576C258.376 57.3968 258.04 57.4664 257.619 57.4664ZM257.756 56.563C258.159 56.563 258.5 56.4579 258.778 56.2477C259.057 56.0346 259.268 55.7406 259.413 55.3656C259.558 54.9877 259.631 54.5517 259.631 54.0574C259.631 53.5687 259.56 53.1412 259.418 52.7747C259.275 52.4054 259.065 52.1184 258.787 51.9139C258.508 51.7065 258.165 51.6028 257.756 51.6028C257.329 51.6028 256.974 51.7122 256.69 51.9309C256.409 52.1468 256.197 52.4409 256.055 52.813C255.916 53.1824 255.846 53.5971 255.846 54.0574C255.846 54.5233 255.918 54.9466 256.06 55.3272C256.204 55.7051 256.418 56.0062 256.699 56.2306C256.983 56.4522 257.335 56.563 257.756 56.563ZM262.601 57.3301V50.7846H263.606V57.3301H262.601ZM263.112 49.6937C262.916 49.6937 262.747 49.627 262.605 49.4934C262.466 49.3599 262.396 49.1994 262.396 49.0119C262.396 48.8244 262.466 48.6639 262.605 48.5304C262.747 48.3968 262.916 48.3301 263.112 48.3301C263.308 48.3301 263.476 48.3968 263.615 48.5304C263.757 48.6639 263.828 48.8244 263.828 49.0119C263.828 49.1994 263.757 49.3599 263.615 49.4934C263.476 49.627 263.308 49.6937 263.112 49.6937ZM268.363 50.7846V51.6369H264.835V50.7846H268.363ZM265.892 57.3301V49.8812C265.892 49.5062 265.98 49.1937 266.156 48.9437C266.332 48.6937 266.561 48.5062 266.842 48.3812C267.123 48.2562 267.42 48.1937 267.732 48.1937C267.98 48.1937 268.181 48.2136 268.338 48.2534C268.494 48.2931 268.61 48.3301 268.687 48.3642L268.397 49.2335C268.346 49.2164 268.275 49.1951 268.184 49.1696C268.096 49.144 267.98 49.1312 267.835 49.1312C267.502 49.1312 267.262 49.215 267.115 49.3826C266.97 49.5502 266.897 49.796 266.897 50.1199V57.3301H265.892ZM269.773 57.3301V50.7846H270.778V57.3301H269.773ZM270.284 49.6937C270.088 49.6937 269.919 49.627 269.777 49.4934C269.638 49.3599 269.568 49.1994 269.568 49.0119C269.568 48.8244 269.638 48.6639 269.777 48.5304C269.919 48.3968 270.088 48.3301 270.284 48.3301C270.48 48.3301 270.648 48.3968 270.787 48.5304C270.929 48.6639 271 48.8244 271 49.0119C271 49.1994 270.929 49.3599 270.787 49.4934C270.648 49.627 270.48 49.6937 270.284 49.6937ZM275.365 57.4664C274.734 57.4664 274.19 57.3272 273.732 57.0488C273.278 56.7676 272.927 56.3755 272.68 55.8727C272.436 55.367 272.313 54.7789 272.313 54.1085C272.313 53.438 272.436 52.8471 272.68 52.3358C272.927 51.8216 273.271 51.421 273.711 51.1341C274.154 50.8443 274.671 50.6994 275.262 50.6994C275.603 50.6994 275.94 50.7562 276.272 50.8699C276.605 50.9835 276.907 51.1681 277.18 51.4238C277.453 51.6767 277.67 52.0119 277.832 52.4295C277.994 52.8471 278.075 53.3613 278.075 53.9721V54.3983H273.029V53.5289H277.052C277.052 53.1596 276.978 52.8301 276.831 52.5403C276.686 52.2505 276.478 52.0218 276.208 51.8542C275.941 51.6866 275.626 51.6028 275.262 51.6028C274.862 51.6028 274.515 51.7022 274.223 51.9011C273.933 52.0971 273.71 52.3528 273.554 52.6681C273.397 52.9835 273.319 53.3216 273.319 53.6824V54.2619C273.319 54.7562 273.404 55.1752 273.575 55.519C273.748 55.8599 273.988 56.1199 274.295 56.2988C274.602 56.475 274.958 56.563 275.365 56.563C275.629 56.563 275.867 56.5261 276.081 56.4522C276.296 56.3755 276.482 56.2619 276.639 56.1113C276.795 55.9579 276.916 55.7676 277.001 55.5403L277.973 55.813C277.87 56.1426 277.698 56.4324 277.457 56.6824C277.215 56.9295 276.917 57.1227 276.562 57.2619C276.207 57.3983 275.808 57.4664 275.365 57.4664ZM279.605 57.3301V50.7846H280.576V51.7733H280.644C280.764 51.4494 280.98 51.1866 281.292 50.9849C281.605 50.7832 281.957 50.6824 282.349 50.6824C282.423 50.6824 282.515 50.6838 282.626 50.6866C282.737 50.6895 282.821 50.6937 282.877 50.6994V51.7221C282.843 51.7136 282.765 51.7008 282.643 51.6838C282.524 51.6639 282.397 51.6539 282.264 51.6539C281.946 51.6539 281.661 51.7207 281.411 51.8542C281.164 51.9849 280.968 52.1667 280.823 52.3997C280.681 52.6298 280.61 52.8926 280.61 53.188V57.3301H279.605Z" fill="#4F48ED"/>
<defs>
<filter id="filter0_d_507_8846" x="0" y="0" width="311.011" height="117" filterUnits="userSpaceOnUse" color-interpolation-filters="sRGB">
<feFlood flood-opacity="0" result="BackgroundImageFix"/>
<feColorMatrix in="SourceAlpha" type="matrix" values="0 0 0 0 0 0 0 0 0 0 0 0 0 0 0 0 0 0 127 0" result="hardAlpha"/>
<feMorphology radius="1" operator="erode" in="SourceAlpha" result="effect1_dropShadow_507_8846"/>
<feOffset dy="2"/>
<feGaussianBlur stdDeviation="3"/>
<feComposite in2="hardAlpha" operator="out"/>
<feColorMatrix type="matrix" values="0 0 0 0 0 0 0 0 0 0 0 0 0 0 0 0 0 0 0.25 0"/>
<feBlend mode="normal" in2="BackgroundImageFix" result="effect1_dropShadow_507_8846"/>
<feBlend mode="normal" in="SourceGraphic" in2="effect1_dropShadow_507_8846" result="shape"/>
</filter>
<filter id="filter1_d_507_8846" x="0" y="69.374" width="311.011" height="47.626" filterUnits="userSpaceOnUse" color-interpolation-filters="sRGB">
<feFlood flood-opacity="0" result="BackgroundImageFix"/>
<feColorMatrix in="SourceAlpha" type="matrix" values="0 0 0 0 0 0 0 0 0 0 0 0 0 0 0 0 0 0 127 0" result="hardAlpha"/>
<feMorphology radius="1" operator="erode" in="SourceAlpha" result="effect1_dropShadow_507_8846"/>
<feOffset dy="2"/>
<feGaussianBlur stdDeviation="3"/>
<feComposite in2="hardAlpha" operator="out"/>
<feColorMatrix type="matrix" values="0 0 0 0 0 0 0 0 0 0 0 0 0 0 0 0 0 0 0.25 0"/>
<feBlend mode="normal" in2="BackgroundImageFix" result="effect1_dropShadow_507_8846"/>
<feBlend mode="normal" in="SourceGraphic" in2="effect1_dropShadow_507_8846" result="shape"/>
</filter>
<clipPath id="clip0_507_8846">
<rect width="14.3339" height="13.2371" fill="white" transform="translate(277.343 85.3086)"/>
</clipPath>
</defs>
</svg>
