<svg width="339" height="146" viewBox="0 0 339 146" fill="none" xmlns="http://www.w3.org/2000/svg">
<g filter="url(#filter0_d_507_8868)">
<path d="M2 30C2 13.4315 15.4315 0 32 0H305C321.569 0 335 13.4315 335 30V140H2V30Z" fill="white"/>
</g>
<path d="M26.4316 34.6553L27.6436 32.7046C28.0254 33.0145 28.3934 33.269 28.7476 33.4683C29.1073 33.6619 29.4614 33.8058 29.8101 33.8999C30.1587 33.9884 30.5156 34.0327 30.8809 34.0327C31.3125 34.0327 31.686 33.9718 32.0015 33.8501C32.3169 33.7284 32.5604 33.554 32.7319 33.3271C32.909 33.1003 32.9976 32.8374 32.9976 32.5386C32.9976 32.1899 32.8869 31.8966 32.6655 31.6587C32.4442 31.4207 32.1536 31.2132 31.7939 31.0361C31.4398 30.8535 31.0552 30.6792 30.6401 30.5132C30.2362 30.3472 29.8294 30.1673 29.4199 29.9736C29.016 29.7744 28.6424 29.5392 28.2993 29.2681C27.9618 28.9969 27.6878 28.6676 27.4775 28.2803C27.2728 27.8874 27.1704 27.4115 27.1704 26.8525C27.1704 26.1221 27.353 25.4912 27.7183 24.96C28.089 24.4287 28.5954 24.0192 29.2373 23.7314C29.8792 23.4437 30.6125 23.2998 31.437 23.2998C32.0181 23.2998 32.6213 23.3773 33.2466 23.5322C33.8774 23.6872 34.5055 23.9224 35.1309 24.2378L34.1265 26.3047C33.7336 26.0667 33.3102 25.8786 32.8564 25.7402C32.4027 25.6019 31.9766 25.5327 31.5781 25.5327C31.2184 25.5327 30.903 25.5881 30.6318 25.6987C30.3662 25.8094 30.1587 25.9644 30.0093 26.1636C29.8599 26.3573 29.7852 26.5869 29.7852 26.8525C29.7852 27.168 29.8931 27.4419 30.1089 27.6743C30.3247 27.9012 30.6042 28.1032 30.9473 28.2803C31.2959 28.4574 31.6694 28.6344 32.0679 28.8115C32.4774 28.9886 32.8896 29.1823 33.3047 29.3926C33.7253 29.6029 34.1071 29.8519 34.4502 30.1396C34.7988 30.4219 35.0783 30.7622 35.2886 31.1606C35.5044 31.5535 35.6123 32.0267 35.6123 32.5801C35.6123 33.3105 35.4186 33.9525 35.0312 34.5059C34.6439 35.0537 34.1043 35.4826 33.4126 35.7925C32.7209 36.0968 31.9157 36.249 30.9971 36.249C30.1559 36.249 29.3507 36.1134 28.5815 35.8423C27.8123 35.5711 27.0957 35.1755 26.4316 34.6553ZM44.627 36H42.5518L42.4272 35.0122C42.1229 35.3774 41.7466 35.6624 41.2983 35.8672C40.8501 36.0664 40.3576 36.166 39.8208 36.166C39.2397 36.166 38.7223 36.0553 38.2686 35.834C37.8148 35.6071 37.4578 35.2972 37.1978 34.9043C36.9377 34.5059 36.8076 34.0549 36.8076 33.5513C36.8076 33.02 36.9487 32.5524 37.231 32.1484C37.5132 31.7445 37.9006 31.429 38.3931 31.2021C38.8911 30.9697 39.4556 30.8535 40.0864 30.8535C40.4572 30.8535 40.828 30.895 41.1987 30.978C41.575 31.061 41.9237 31.1772 42.2446 31.3267V31.1108C42.2446 30.7788 42.1506 30.4938 41.9624 30.2559C41.7798 30.0124 41.5252 29.8242 41.1987 29.6914C40.8778 29.5586 40.5181 29.4922 40.1196 29.4922C39.7378 29.4922 39.3587 29.5531 38.9824 29.6748C38.6117 29.7965 38.2686 29.9792 37.9531 30.2227L37.3057 28.4048C37.8646 28.117 38.429 27.9012 38.999 27.7573C39.5745 27.6079 40.1307 27.5332 40.6675 27.5332C41.4754 27.5332 42.1755 27.6937 42.7676 28.0146C43.3597 28.3301 43.8162 28.7783 44.1372 29.3594C44.4637 29.9349 44.627 30.6183 44.627 31.4097V36ZM40.3438 34.3315C40.6592 34.3315 40.9608 34.2624 41.2485 34.124C41.5363 33.9857 41.7687 33.7975 41.9458 33.5596C42.1284 33.3216 42.2253 33.0588 42.2363 32.771V32.7129C41.9928 32.5469 41.7217 32.4196 41.4229 32.3311C41.1296 32.237 40.8307 32.1899 40.5264 32.1899C40.0726 32.1899 39.7018 32.2896 39.4141 32.4888C39.1263 32.688 38.9824 32.9453 38.9824 33.2607C38.9824 33.4655 39.0405 33.6509 39.1567 33.8169C39.2785 33.9774 39.4417 34.1047 39.6465 34.1987C39.8512 34.2873 40.0837 34.3315 40.3438 34.3315ZM47.6899 25.7153C47.3745 25.7153 47.1089 25.6047 46.8931 25.3833C46.6772 25.1619 46.5693 24.8936 46.5693 24.5781C46.5693 24.2627 46.6772 23.9971 46.8931 23.7812C47.1089 23.5599 47.3745 23.4492 47.6899 23.4492C48.0109 23.4492 48.2793 23.5599 48.4951 23.7812C48.7165 23.9971 48.8271 24.2627 48.8271 24.5781C48.8271 24.8936 48.7165 25.1619 48.4951 25.3833C48.2793 25.6047 48.0109 25.7153 47.6899 25.7153ZM48.8853 36H46.5029V27.6992H48.8853V36ZM59.2197 36H56.8374V31.75C56.8374 31.1025 56.6825 30.5962 56.3726 30.231C56.0682 29.8602 55.6504 29.6748 55.1191 29.6748C54.5658 29.6748 54.1258 29.8685 53.7993 30.2559C53.4784 30.6377 53.3179 31.1579 53.3179 31.8164V36H50.9355V27.6992H52.8613L52.9443 29.0273C53.2432 28.5404 53.6333 28.1696 54.1147 27.915C54.5962 27.6605 55.1634 27.5332 55.8164 27.5332C56.8734 27.5332 57.7035 27.8597 58.3066 28.5127C58.9154 29.1602 59.2197 30.0566 59.2197 31.2021V36ZM66.7153 35.7842C66.0789 36.0387 65.4619 36.166 64.8643 36.166C64.2445 36.166 63.6966 36.036 63.2207 35.7759C62.7503 35.5103 62.3823 35.1423 62.1167 34.6719C61.8511 34.196 61.7183 33.6481 61.7183 33.0283V29.8242H60.2656V27.6992H61.8428V25.624H64.1006V27.6992H66.3999V29.8242H64.1006V32.5967C64.1006 33.0505 64.2251 33.4046 64.4741 33.6592C64.7231 33.9082 65.033 34.0327 65.4038 34.0327C65.7414 34.0327 66.0706 33.9276 66.3916 33.7173L66.7153 35.7842ZM75.7466 35.0703C74.7173 35.8008 73.5911 36.166 72.3682 36.166C71.4606 36.166 70.6444 35.9723 69.9194 35.585C69.2 35.1921 68.63 34.6608 68.2095 33.9912C67.7944 33.3216 67.5869 32.5662 67.5869 31.7251C67.5869 30.9227 67.7751 30.2061 68.1514 29.5752C68.5332 28.9443 69.0506 28.4463 69.7036 28.0811C70.3566 27.7158 71.0981 27.5332 71.9282 27.5332C72.786 27.5332 73.5413 27.7352 74.1943 28.1392C74.8473 28.5376 75.3564 29.0965 75.7217 29.8159C76.0869 30.5298 76.2695 31.3571 76.2695 32.2979V32.5635H70.1519C70.2515 32.89 70.4147 33.1777 70.6416 33.4268C70.8685 33.6702 71.1507 33.8639 71.4883 34.0078C71.8258 34.1517 72.2132 34.2236 72.6504 34.2236C73.4971 34.2236 74.2856 33.9497 75.0161 33.4019L75.7466 35.0703ZM70.0439 31.3516H74.0698C74.0256 30.9919 73.9121 30.6764 73.7295 30.4053C73.5524 30.1286 73.3172 29.9128 73.0239 29.7578C72.7362 29.6029 72.4124 29.5254 72.0527 29.5254C71.6875 29.5254 71.361 29.6056 71.0732 29.7661C70.791 29.9266 70.5614 30.1424 70.3843 30.4136C70.2072 30.6847 70.0938 30.9974 70.0439 31.3516ZM84.4209 32.7461H77.7803V30.9282H84.4209V32.7461ZM97.2373 34.4395C96.6562 35.0039 95.9673 35.4466 95.1704 35.7676C94.3735 36.0885 93.5075 36.249 92.5723 36.249C91.626 36.249 90.7544 36.0885 89.9575 35.7676C89.1606 35.4411 88.4661 34.9873 87.874 34.4062C87.2874 33.8197 86.8309 33.1335 86.5044 32.3477C86.1779 31.5618 86.0146 30.7041 86.0146 29.7744C86.0146 28.8447 86.1779 27.987 86.5044 27.2012C86.8309 26.4098 87.2874 25.7236 87.874 25.1426C88.4661 24.5615 89.1606 24.1105 89.9575 23.7896C90.7544 23.4631 91.626 23.2998 92.5723 23.2998C93.502 23.2998 94.3625 23.4603 95.1538 23.7812C95.9507 24.1022 96.6396 24.5477 97.2207 25.1177L95.436 26.9106C95.0874 26.4845 94.6613 26.1497 94.1577 25.9062C93.6597 25.6572 93.1174 25.5327 92.5308 25.5327C91.9718 25.5327 91.4544 25.6406 90.9785 25.8564C90.5081 26.0667 90.0959 26.3656 89.7417 26.7529C89.3875 27.1348 89.1136 27.583 88.9199 28.0977C88.7262 28.6123 88.6294 29.1685 88.6294 29.7661C88.6294 30.3748 88.7262 30.9365 88.9199 31.4512C89.1136 31.9658 89.3875 32.4168 89.7417 32.8042C90.0959 33.186 90.5081 33.4849 90.9785 33.7007C91.4544 33.911 91.9718 34.0161 92.5308 34.0161C93.1174 34.0161 93.6597 33.8944 94.1577 33.6509C94.6558 33.4019 95.0791 33.0643 95.4277 32.6382L97.2373 34.4395ZM101.28 36H98.8975V27.6992H100.973L101.056 29.1353C101.332 28.6317 101.709 28.2388 102.185 27.9565C102.66 27.6743 103.206 27.5332 103.82 27.5332C103.997 27.5332 104.174 27.547 104.351 27.5747C104.534 27.5968 104.719 27.6328 104.907 27.6826L104.608 29.8242C104.243 29.7191 103.897 29.6665 103.571 29.6665C103.111 29.6665 102.708 29.7716 102.359 29.9819C102.016 30.1867 101.75 30.4744 101.562 30.8452C101.374 31.2104 101.28 31.6393 101.28 32.1318V36ZM109.946 36.166C109.094 36.166 108.33 35.9806 107.655 35.6099C106.98 35.2336 106.448 34.7217 106.061 34.0742C105.679 33.4212 105.488 32.6797 105.488 31.8496C105.488 31.0251 105.679 30.2891 106.061 29.6416C106.448 28.9886 106.98 28.474 107.655 28.0977C108.33 27.7214 109.094 27.5332 109.946 27.5332C110.798 27.5332 111.556 27.7214 112.22 28.0977C112.89 28.474 113.416 28.9886 113.797 29.6416C114.185 30.2891 114.378 31.0251 114.378 31.8496C114.378 32.6797 114.185 33.4212 113.797 34.0742C113.416 34.7217 112.89 35.2336 112.22 35.6099C111.556 35.9806 110.798 36.166 109.946 36.166ZM109.938 34.0327C110.319 34.0327 110.66 33.9386 110.958 33.7505C111.263 33.5568 111.501 33.2967 111.672 32.9702C111.849 32.6382 111.938 32.2591 111.938 31.833C111.938 31.4235 111.849 31.0555 111.672 30.729C111.501 30.4025 111.263 30.1452 110.958 29.957C110.66 29.7633 110.319 29.6665 109.938 29.6665C109.55 29.6665 109.204 29.7633 108.9 29.957C108.601 30.1452 108.363 30.4025 108.186 30.729C108.014 31.0555 107.929 31.4235 107.929 31.833C107.929 32.2591 108.014 32.6382 108.186 32.9702C108.363 33.2967 108.601 33.5568 108.9 33.7505C109.204 33.9386 109.55 34.0327 109.938 34.0327ZM117.101 25.7153C116.786 25.7153 116.52 25.6047 116.304 25.3833C116.088 25.1619 115.98 24.8936 115.98 24.5781C115.98 24.2627 116.088 23.9971 116.304 23.7812C116.52 23.5599 116.786 23.4492 117.101 23.4492C117.422 23.4492 117.69 23.5599 117.906 23.7812C118.128 23.9971 118.238 24.2627 118.238 24.5781C118.238 24.8936 118.128 25.1619 117.906 25.3833C117.69 25.6047 117.422 25.7153 117.101 25.7153ZM118.296 36H115.914V27.6992H118.296V36ZM122.704 36H119.434L122.986 31.75L119.616 27.6992H122.903L124.63 30.1479L126.34 27.6992H129.602L126.257 31.7334L129.81 36H126.514L124.613 33.3022L122.704 36Z" fill="black"/>
<path d="M29.999 53.2852H28.7959V44.2207L26.8955 44.9111L26.5127 43.9404L29.0146 43.0312H29.999V53.2852ZM35.7275 53.4902C35.0075 53.4902 34.3877 53.2829 33.8682 52.8682C33.3486 52.4489 32.9499 51.8428 32.6719 51.0498C32.3939 50.2523 32.2549 49.2861 32.2549 48.1514C32.2549 47.0212 32.3939 46.0596 32.6719 45.2666C32.9499 44.4736 33.3486 43.8698 33.8682 43.4551C34.3877 43.0358 35.0075 42.8262 35.7275 42.8262C36.4521 42.8262 37.0719 43.0358 37.5869 43.4551C38.1064 43.8698 38.5052 44.4736 38.7832 45.2666C39.0612 46.0596 39.2002 47.0212 39.2002 48.1514C39.2002 49.2861 39.0612 50.2523 38.7832 51.0498C38.5098 51.8428 38.1133 52.4489 37.5938 52.8682C37.0742 53.2829 36.4521 53.4902 35.7275 53.4902ZM35.7275 52.4238C36.4339 52.4238 36.9831 52.0479 37.375 51.2959C37.7715 50.5439 37.9697 49.4958 37.9697 48.1514C37.9697 46.807 37.7715 45.7611 37.375 45.0137C36.9831 44.2663 36.4339 43.8926 35.7275 43.8926C35.0257 43.8926 34.4766 44.2663 34.0801 45.0137C33.6836 45.7611 33.4854 46.807 33.4854 48.1514C33.4854 49.4958 33.6836 50.5439 34.0801 51.2959C34.4766 52.0479 35.0257 52.4238 35.7275 52.4238ZM43.835 53.4902C43.1149 53.4902 42.4951 53.2829 41.9756 52.8682C41.4561 52.4489 41.0573 51.8428 40.7793 51.0498C40.5013 50.2523 40.3623 49.2861 40.3623 48.1514C40.3623 47.0212 40.5013 46.0596 40.7793 45.2666C41.0573 44.4736 41.4561 43.8698 41.9756 43.4551C42.4951 43.0358 43.1149 42.8262 43.835 42.8262C44.5596 42.8262 45.1794 43.0358 45.6943 43.4551C46.2139 43.8698 46.6126 44.4736 46.8906 45.2666C47.1686 46.0596 47.3076 47.0212 47.3076 48.1514C47.3076 49.2861 47.1686 50.2523 46.8906 51.0498C46.6172 51.8428 46.2207 52.4489 45.7012 52.8682C45.1816 53.2829 44.5596 53.4902 43.835 53.4902ZM43.835 52.4238C44.5413 52.4238 45.0905 52.0479 45.4824 51.2959C45.8789 50.5439 46.0771 49.4958 46.0771 48.1514C46.0771 46.807 45.8789 45.7611 45.4824 45.0137C45.0905 44.2663 44.5413 43.8926 43.835 43.8926C43.1331 43.8926 42.584 44.2663 42.1875 45.0137C41.791 45.7611 41.5928 46.807 41.5928 48.1514C41.5928 49.4958 41.791 50.5439 42.1875 51.2959C42.584 52.0479 43.1331 52.4238 43.835 52.4238ZM59.7695 53.2852H58.6484V49.6416C58.6484 48.9079 58.4867 48.3382 58.1631 47.9326C57.8441 47.5225 57.3929 47.3174 56.8096 47.3174C56.2217 47.3174 55.7591 47.5247 55.4219 47.9395C55.0892 48.3496 54.9229 48.917 54.9229 49.6416V53.2852H53.8018V49.6416C53.8018 48.9079 53.64 48.3382 53.3164 47.9326C52.9928 47.5225 52.5394 47.3174 51.9561 47.3174C51.3682 47.3174 50.9056 47.5247 50.5684 47.9395C50.2357 48.3496 50.0693 48.917 50.0693 49.6416V53.2852H48.9482V46.4492H49.8643L49.9121 47.6729C50.14 47.2262 50.4499 46.889 50.8418 46.6611C51.2383 46.4287 51.7054 46.3125 52.2432 46.3125C52.8174 46.3125 53.3073 46.4424 53.7129 46.7021C54.123 46.9574 54.4284 47.3242 54.6289 47.8027C54.8522 47.3151 55.1689 46.946 55.5791 46.6953C55.9938 46.4401 56.4883 46.3125 57.0625 46.3125C57.9147 46.3125 58.5778 46.5837 59.0518 47.126C59.5303 47.6637 59.7695 48.4157 59.7695 49.3818V53.2852Z" fill="#888EA8"/>
<path d="M54.6202 97.7715H50.7179L56.6593 83.3457H49.2999V80.1934H60.9015V82.5488L54.6202 97.7715Z" fill="#282B3A"/>
<path d="M28.9922 111.999L31.1512 118.121H31.2365L33.3956 111.999H34.3189L31.6484 119.271H30.7393L28.0689 111.999H28.9922ZM35.4517 119.271V111.999H39.8409V112.78H36.3324V115.237H39.6136V116.019H36.3324V118.49H39.8977V119.271H35.4517ZM37.2557 111.26L38.1221 109.612H39.1022L37.9943 111.26H37.2557ZM41.4282 119.271V111.999H42.3089V118.49H45.6896V119.271H41.4282ZM52.9064 115.635C52.9064 116.402 52.7679 117.065 52.4909 117.624C52.2139 118.182 51.834 118.613 51.351 118.916C50.868 119.219 50.3164 119.371 49.6962 119.371C49.0759 119.371 48.5243 119.219 48.0413 118.916C47.5584 118.613 47.1784 118.182 46.9014 117.624C46.6244 117.065 46.4859 116.402 46.4859 115.635C46.4859 114.868 46.6244 114.205 46.9014 113.646C47.1784 113.088 47.5584 112.657 48.0413 112.354C48.5243 112.051 49.0759 111.899 49.6962 111.899C50.3164 111.899 50.868 112.051 51.351 112.354C51.834 112.657 52.2139 113.088 52.4909 113.646C52.7679 114.205 52.9064 114.868 52.9064 115.635ZM52.0541 115.635C52.0541 115.005 51.9488 114.474 51.7381 114.041C51.5297 113.607 51.2468 113.28 50.8894 113.057C50.5342 112.834 50.1365 112.723 49.6962 112.723C49.2558 112.723 48.8569 112.834 48.4994 113.057C48.1443 113.28 47.8614 113.607 47.6507 114.041C47.4424 114.474 47.3382 115.005 47.3382 115.635C47.3382 116.265 47.4424 116.796 47.6507 117.23C47.8614 117.663 48.1443 117.991 48.4994 118.213C48.8569 118.436 49.2558 118.547 49.6962 118.547C50.1365 118.547 50.5342 118.436 50.8894 118.213C51.2468 117.991 51.5297 117.663 51.7381 117.23C51.9488 116.796 52.0541 116.265 52.0541 115.635ZM58.3645 113.817C58.3219 113.457 58.1491 113.178 57.846 112.979C57.543 112.78 57.1713 112.681 56.731 112.681C56.409 112.681 56.1273 112.733 55.8858 112.837C55.6467 112.941 55.4597 113.084 55.3247 113.267C55.1921 113.449 55.1259 113.656 55.1259 113.888C55.1259 114.082 55.172 114.249 55.2644 114.389C55.359 114.526 55.4798 114.641 55.6266 114.733C55.7733 114.823 55.9272 114.898 56.0882 114.957C56.2492 115.014 56.3972 115.06 56.5321 115.095L57.2707 115.294C57.4601 115.344 57.6708 115.413 57.9028 115.5C58.1372 115.588 58.3609 115.707 58.574 115.859C58.7894 116.008 58.967 116.2 59.1067 116.434C59.2464 116.669 59.3162 116.956 59.3162 117.297C59.3162 117.69 59.2132 118.045 59.0072 118.362C58.8037 118.68 58.5054 118.932 58.1124 119.119C57.7217 119.306 57.2471 119.399 56.6884 119.399C56.1675 119.399 55.7165 119.315 55.3354 119.147C54.9566 118.979 54.6583 118.745 54.4405 118.444C54.2251 118.143 54.1031 117.794 54.0747 117.396H54.9838C55.0075 117.671 55.0998 117.898 55.2608 118.078C55.4242 118.256 55.6301 118.388 55.8787 118.476C56.1296 118.561 56.3995 118.604 56.6884 118.604C57.0245 118.604 57.3264 118.549 57.5939 118.441C57.8614 118.329 58.0733 118.175 58.2295 117.979C58.3858 117.78 58.4639 117.548 58.4639 117.283C58.4639 117.041 58.3965 116.845 58.2615 116.693C58.1266 116.542 57.949 116.419 57.7288 116.324C57.5087 116.229 57.2707 116.146 57.0151 116.075L56.1202 115.82C55.552 115.656 55.1022 115.423 54.7707 115.12C54.4393 114.817 54.2736 114.421 54.2736 113.931C54.2736 113.523 54.3837 113.168 54.6038 112.865C54.8264 112.56 55.1247 112.323 55.4987 112.155C55.8751 111.985 56.2954 111.899 56.7594 111.899C57.2281 111.899 57.6448 111.983 58.0094 112.151C58.374 112.317 58.6628 112.544 58.8759 112.833C59.0913 113.122 59.2049 113.45 59.2168 113.817H58.3645ZM63.5767 111.999H64.6278L67.0994 118.036H67.1846L69.6562 111.999H70.7074V119.271H69.8835V113.746H69.8125L67.5397 119.271H66.7443L64.4716 113.746H64.4005V119.271H63.5767V111.999ZM72.7715 119.271H71.8482L74.5186 111.999H75.4277L78.0982 119.271H77.1749L75.0016 113.149H74.9447L72.7715 119.271ZM73.1124 116.431H76.834V117.212H73.1124V116.431ZM84.998 111.999V119.271H84.1457L80.1827 113.561H80.1117V119.271H79.231V111.999H80.0832L84.0605 117.723H84.1315V111.999H84.998ZM91.533 111.999H92.4137V116.814C92.4137 117.311 92.2965 117.755 92.0621 118.146C91.8301 118.534 91.5022 118.841 91.0784 119.066C90.6547 119.288 90.1575 119.399 89.587 119.399C89.0164 119.399 88.5193 119.288 88.0955 119.066C87.6717 118.841 87.3427 118.534 87.1083 118.146C86.8763 117.755 86.7603 117.311 86.7603 116.814V111.999H87.6409V116.743C87.6409 117.098 87.7191 117.414 87.8753 117.691C88.0316 117.966 88.2541 118.182 88.5429 118.341C88.8341 118.497 89.1821 118.575 89.587 118.575C89.9918 118.575 90.3398 118.497 90.631 118.341C90.9222 118.182 91.1447 117.966 91.2986 117.691C91.4549 117.414 91.533 117.098 91.533 116.743V111.999ZM94.1724 119.271V111.999H98.5616V112.78H95.0531V115.237H98.3343V116.019H95.0531V118.49H98.6184V119.271H94.1724ZM100.149 119.271V111.999H101.03V118.49H104.41V119.271H100.149ZM109.751 113.817C109.709 113.457 109.536 113.178 109.233 112.979C108.93 112.78 108.558 112.681 108.118 112.681C107.796 112.681 107.514 112.733 107.273 112.837C107.033 112.941 106.846 113.084 106.711 113.267C106.579 113.449 106.513 113.656 106.513 113.888C106.513 114.082 106.559 114.249 106.651 114.389C106.746 114.526 106.867 114.641 107.013 114.733C107.16 114.823 107.314 114.898 107.475 114.957C107.636 115.014 107.784 115.06 107.919 115.095L108.657 115.294C108.847 115.344 109.058 115.413 109.29 115.5C109.524 115.588 109.748 115.707 109.961 115.859C110.176 116.008 110.354 116.2 110.493 116.434C110.633 116.669 110.703 116.956 110.703 117.297C110.703 117.69 110.6 118.045 110.394 118.362C110.19 118.68 109.892 118.932 109.499 119.119C109.108 119.306 108.634 119.399 108.075 119.399C107.554 119.399 107.103 119.315 106.722 119.147C106.343 118.979 106.045 118.745 105.827 118.444C105.612 118.143 105.49 117.794 105.461 117.396H106.371C106.394 117.671 106.487 117.898 106.648 118.078C106.811 118.256 107.017 118.388 107.265 118.476C107.516 118.561 107.786 118.604 108.075 118.604C108.411 118.604 108.713 118.549 108.981 118.441C109.248 118.329 109.46 118.175 109.616 117.979C109.773 117.78 109.851 117.548 109.851 117.283C109.851 117.041 109.783 116.845 109.648 116.693C109.513 116.542 109.336 116.419 109.116 116.324C108.895 116.229 108.657 116.146 108.402 116.075L107.507 115.82C106.939 115.656 106.489 115.423 106.157 115.12C105.826 114.817 105.66 114.421 105.66 113.931C105.66 113.523 105.77 113.168 105.991 112.865C106.213 112.56 106.511 112.323 106.885 112.155C107.262 111.985 107.682 111.899 108.146 111.899C108.615 111.899 109.032 111.983 109.396 112.151C109.761 112.317 110.05 112.544 110.263 112.833C110.478 113.122 110.592 113.45 110.603 113.817H109.751Z" fill="#888EA8"/>
<path fill-rule="evenodd" clip-rule="evenodd" d="M70.5786 92.4648C70.5786 95.5791 73.149 98.1146 76.3063 98.1146C79.4594 98.1146 82.0299 95.5791 82.0299 92.4648C82.0299 90.7993 81.2912 89.3005 80.1263 88.268L80.9579 87.0314L85.4701 92.9435C85.6222 93.1599 85.867 93.2725 86.12 93.2725H88.6398C89.0367 96.0079 91.413 98.1145 94.3 98.1145C97.4573 98.1145 100.028 95.5791 100.028 92.4648C100.028 89.3504 97.4573 86.8191 94.3 86.8191C93.3038 86.8191 92.3709 87.069 91.5523 87.5103L89.8005 85.2038H90.0284C90.4758 85.2038 90.8473 84.8374 90.8473 84.396C90.8473 83.9546 90.4758 83.5882 90.0284 83.5882H87.7576V85.2035H79.9953L80.0165 81.473H82.6757C83.1232 81.473 83.4946 81.1066 83.4946 80.6652C83.4946 80.2238 83.1232 79.8574 82.6757 79.8574H79.4045C78.9782 79.8574 78.7461 79.9408 78.7291 80.2113L78.7588 87.3725C78.0201 87.0186 77.1885 86.8187 76.3065 86.8187C73.1492 86.8187 70.5788 89.35 70.5788 92.4643L70.5786 92.4648ZM86.2002 91.9027L82.0849 86.4902H88.9441L90.3581 88.3511C89.4 89.2797 88.7584 90.5202 88.5557 91.9027H86.2002Z" fill="#282B3A"/>
<path d="M179.053 97.7715H167.85V95.6504C169.232 94.416 170.393 93.3262 171.33 92.3809C172.275 91.4355 173.029 90.5918 173.592 89.8496C174.154 89.1074 174.56 88.4277 174.81 87.8105C175.06 87.1855 175.185 86.5801 175.185 85.9941C175.185 85.3926 175.072 84.8652 174.846 84.4121C174.627 83.959 174.314 83.6074 173.908 83.3574C173.51 83.1074 173.045 82.9824 172.514 82.9824C171.904 82.9824 171.314 83.1582 170.744 83.5098C170.174 83.8535 169.689 84.3301 169.291 84.9395L167.463 82.6426C168.15 81.752 169.002 81.0645 170.018 80.5801C171.041 80.0879 172.103 79.8418 173.205 79.8418C174.252 79.8418 175.205 80.0645 176.064 80.5098C176.924 80.9551 177.607 81.5879 178.115 82.4082C178.623 83.2285 178.877 84.1973 178.877 85.3145C178.877 86.0957 178.74 86.8848 178.467 87.6816C178.201 88.4707 177.81 89.2559 177.295 90.0371C176.787 90.8184 176.162 91.5957 175.42 92.3691C174.685 93.1348 173.846 93.8848 172.9 94.6191H179.053V97.7715Z" fill="#282B3A"/>
<path d="M138.212 111.999L140.372 118.121H140.457L142.616 111.999H143.539L140.869 119.271H139.96L137.289 111.999H138.212ZM144.672 119.271V111.999H149.061V112.78H145.553V115.237H148.834V116.019H145.553V118.49H149.118V119.271H144.672ZM146.476 111.26L147.342 109.612H148.323L147.215 111.26H146.476ZM150.649 119.271V111.999H151.529V118.49H154.91V119.271H150.649ZM162.127 115.635C162.127 116.402 161.988 117.065 161.711 117.624C161.434 118.182 161.054 118.613 160.571 118.916C160.088 119.219 159.537 119.371 158.916 119.371C158.296 119.371 157.745 119.219 157.262 118.916C156.779 118.613 156.399 118.182 156.122 117.624C155.845 117.065 155.706 116.402 155.706 115.635C155.706 114.868 155.845 114.205 156.122 113.646C156.399 113.088 156.779 112.657 157.262 112.354C157.745 112.051 158.296 111.899 158.916 111.899C159.537 111.899 160.088 112.051 160.571 112.354C161.054 112.657 161.434 113.088 161.711 113.646C161.988 114.205 162.127 114.868 162.127 115.635ZM161.274 115.635C161.274 115.005 161.169 114.474 160.958 114.041C160.75 113.607 160.467 113.28 160.11 113.057C159.755 112.834 159.357 112.723 158.916 112.723C158.476 112.723 158.077 112.834 157.72 113.057C157.365 113.28 157.082 113.607 156.871 114.041C156.663 114.474 156.559 115.005 156.559 115.635C156.559 116.265 156.663 116.796 156.871 117.23C157.082 117.663 157.365 117.991 157.72 118.213C158.077 118.436 158.476 118.547 158.916 118.547C159.357 118.547 159.755 118.436 160.11 118.213C160.467 117.991 160.75 117.663 160.958 117.23C161.169 116.796 161.274 116.265 161.274 115.635ZM167.585 113.817C167.542 113.457 167.369 113.178 167.066 112.979C166.763 112.78 166.392 112.681 165.951 112.681C165.629 112.681 165.348 112.733 165.106 112.837C164.867 112.941 164.68 113.084 164.545 113.267C164.412 113.449 164.346 113.656 164.346 113.888C164.346 114.082 164.392 114.249 164.485 114.389C164.579 114.526 164.7 114.641 164.847 114.733C164.994 114.823 165.148 114.898 165.309 114.957C165.469 115.014 165.617 115.06 165.752 115.095L166.491 115.294C166.68 115.344 166.891 115.413 167.123 115.5C167.358 115.588 167.581 115.707 167.794 115.859C168.01 116.008 168.187 116.2 168.327 116.434C168.467 116.669 168.536 116.956 168.536 117.297C168.536 117.69 168.434 118.045 168.228 118.362C168.024 118.68 167.726 118.932 167.333 119.119C166.942 119.306 166.467 119.399 165.909 119.399C165.388 119.399 164.937 119.315 164.556 119.147C164.177 118.979 163.879 118.745 163.661 118.444C163.445 118.143 163.323 117.794 163.295 117.396H164.204C164.228 117.671 164.32 117.898 164.481 118.078C164.644 118.256 164.85 118.388 165.099 118.476C165.35 118.561 165.62 118.604 165.909 118.604C166.245 118.604 166.547 118.549 166.814 118.441C167.082 118.329 167.294 118.175 167.45 117.979C167.606 117.78 167.684 117.548 167.684 117.283C167.684 117.041 167.617 116.845 167.482 116.693C167.347 116.542 167.169 116.419 166.949 116.324C166.729 116.229 166.491 116.146 166.235 116.075L165.34 115.82C164.772 115.656 164.322 115.423 163.991 115.12C163.66 114.817 163.494 114.421 163.494 113.931C163.494 113.523 163.604 113.168 163.824 112.865C164.047 112.56 164.345 112.323 164.719 112.155C165.095 111.985 165.516 111.899 165.98 111.899C166.448 111.899 166.865 111.983 167.23 112.151C167.594 112.317 167.883 112.544 168.096 112.833C168.312 113.122 168.425 113.45 168.437 113.817H167.585ZM172.797 119.271V111.999H177.186V112.78H173.678V115.237H176.959V116.019H173.678V118.49H177.243V119.271H172.797ZM174.601 111.26L175.467 109.612H176.448L175.34 111.26H174.601ZM178.774 119.271V111.999H179.654V118.49H183.035V119.271H178.774ZM184.399 119.271V111.999H188.788V112.78H185.279V115.237H188.56V116.019H185.279V118.49H188.845V119.271H184.399ZM196.227 114.271H195.347C195.295 114.018 195.203 113.796 195.073 113.604C194.945 113.412 194.789 113.251 194.604 113.121C194.422 112.988 194.22 112.889 193.997 112.823C193.775 112.756 193.543 112.723 193.301 112.723C192.861 112.723 192.462 112.834 192.104 113.057C191.749 113.28 191.466 113.607 191.256 114.041C191.047 114.474 190.943 115.005 190.943 115.635C190.943 116.265 191.047 116.796 191.256 117.23C191.466 117.663 191.749 117.991 192.104 118.213C192.462 118.436 192.861 118.547 193.301 118.547C193.543 118.547 193.775 118.514 193.997 118.448C194.22 118.381 194.422 118.283 194.604 118.153C194.789 118.02 194.945 117.858 195.073 117.666C195.203 117.472 195.295 117.25 195.347 116.999H196.227C196.161 117.37 196.04 117.703 195.865 117.997C195.69 118.29 195.472 118.54 195.212 118.746C194.951 118.95 194.659 119.105 194.335 119.211C194.013 119.318 193.668 119.371 193.301 119.371C192.681 119.371 192.129 119.219 191.646 118.916C191.163 118.613 190.783 118.182 190.506 117.624C190.229 117.065 190.091 116.402 190.091 115.635C190.091 114.868 190.229 114.205 190.506 113.646C190.783 113.088 191.163 112.657 191.646 112.354C192.129 112.051 192.681 111.899 193.301 111.899C193.668 111.899 194.013 111.953 194.335 112.059C194.659 112.166 194.951 112.322 195.212 112.528C195.472 112.731 195.69 112.98 195.865 113.274C196.04 113.565 196.161 113.897 196.227 114.271ZM197.253 112.78V111.999H202.707V112.78H200.42V119.271H199.54V112.78H197.253ZM204.066 119.271V111.999H206.524C207.092 111.999 207.558 112.096 207.923 112.29C208.288 112.482 208.557 112.746 208.733 113.082C208.908 113.418 208.995 113.8 208.995 114.229C208.995 114.657 208.908 115.037 208.733 115.369C208.557 115.7 208.289 115.961 207.927 116.15C207.564 116.337 207.102 116.431 206.538 116.431H204.549V115.635H206.51C206.898 115.635 207.21 115.578 207.447 115.465C207.686 115.351 207.859 115.19 207.966 114.982C208.075 114.771 208.129 114.52 208.129 114.229C208.129 113.938 208.075 113.683 207.966 113.465C207.857 113.248 207.683 113.079 207.444 112.961C207.205 112.84 206.888 112.78 206.495 112.78H204.947V119.271H204.066ZM207.49 116.004L209.28 119.271H208.257L206.495 116.004H207.49ZM211.344 111.999V119.271H210.463V111.999H211.344ZM215.752 116.999H216.717L217.527 118.064L217.74 118.348L218.948 119.953H217.982L217.186 118.888L216.987 118.618L215.752 116.999ZM219.246 115.635C219.246 116.402 219.107 117.065 218.83 117.624C218.553 118.182 218.173 118.613 217.69 118.916C217.207 119.219 216.656 119.371 216.036 119.371C215.415 119.371 214.864 119.219 214.381 118.916C213.898 118.613 213.518 118.182 213.241 117.624C212.964 117.065 212.825 116.402 212.825 115.635C212.825 114.868 212.964 114.205 213.241 113.646C213.518 113.088 213.898 112.657 214.381 112.354C214.864 112.051 215.415 111.899 216.036 111.899C216.656 111.899 217.207 112.051 217.69 112.354C218.173 112.657 218.553 113.088 218.83 113.646C219.107 114.205 219.246 114.868 219.246 115.635ZM218.394 115.635C218.394 115.005 218.288 114.474 218.077 114.041C217.869 113.607 217.586 113.28 217.229 113.057C216.874 112.834 216.476 112.723 216.036 112.723C215.595 112.723 215.196 112.834 214.839 113.057C214.484 113.28 214.201 113.607 213.99 114.041C213.782 114.474 213.678 115.005 213.678 115.635C213.678 116.265 213.782 116.796 213.99 117.23C214.201 117.663 214.484 117.991 214.839 118.213C215.196 118.436 215.595 118.547 216.036 118.547C216.476 118.547 216.874 118.436 217.229 118.213C217.586 117.991 217.869 117.663 218.077 117.23C218.288 116.796 218.394 116.265 218.394 115.635ZM225.499 111.999H226.38V116.814C226.38 117.311 226.263 117.755 226.028 118.146C225.796 118.534 225.469 118.841 225.045 119.066C224.621 119.288 224.124 119.399 223.553 119.399C222.983 119.399 222.486 119.288 222.062 119.066C221.638 118.841 221.309 118.534 221.075 118.146C220.843 117.755 220.727 117.311 220.727 116.814V111.999H221.607V116.743C221.607 117.098 221.685 117.414 221.842 117.691C221.998 117.966 222.22 118.182 222.509 118.341C222.801 118.497 223.149 118.575 223.553 118.575C223.958 118.575 224.306 118.497 224.597 118.341C224.889 118.182 225.111 117.966 225.265 117.691C225.421 117.414 225.499 117.098 225.499 116.743V111.999ZM228.139 119.271V111.999H232.528V112.78H229.019V115.237H232.301V116.019H229.019V118.49H232.585V119.271H228.139ZM238.093 113.817C238.05 113.457 237.877 113.178 237.574 112.979C237.271 112.78 236.899 112.681 236.459 112.681C236.137 112.681 235.855 112.733 235.614 112.837C235.375 112.941 235.188 113.084 235.053 113.267C234.92 113.449 234.854 113.656 234.854 113.888C234.854 114.082 234.9 114.249 234.992 114.389C235.087 114.526 235.208 114.641 235.355 114.733C235.501 114.823 235.655 114.898 235.816 114.957C235.977 115.014 236.125 115.06 236.26 115.095L236.999 115.294C237.188 115.344 237.399 115.413 237.631 115.5C237.865 115.588 238.089 115.707 238.302 115.859C238.518 116.008 238.695 116.2 238.835 116.434C238.974 116.669 239.044 116.956 239.044 117.297C239.044 117.69 238.941 118.045 238.735 118.362C238.532 118.68 238.233 118.932 237.84 119.119C237.45 119.306 236.975 119.399 236.416 119.399C235.896 119.399 235.445 119.315 235.063 119.147C234.685 118.979 234.386 118.745 234.169 118.444C233.953 118.143 233.831 117.794 233.803 117.396H234.712C234.736 117.671 234.828 117.898 234.989 118.078C235.152 118.256 235.358 118.388 235.607 118.476C235.858 118.561 236.128 118.604 236.416 118.604C236.753 118.604 237.054 118.549 237.322 118.441C237.59 118.329 237.801 118.175 237.958 117.979C238.114 117.78 238.192 117.548 238.192 117.283C238.192 117.041 238.125 116.845 237.99 116.693C237.855 116.542 237.677 116.419 237.457 116.324C237.237 116.229 236.999 116.146 236.743 116.075L235.848 115.82C235.28 115.656 234.83 115.423 234.499 115.12C234.167 114.817 234.002 114.421 234.002 113.931C234.002 113.523 234.112 113.168 234.332 112.865C234.554 112.56 234.853 112.323 235.227 112.155C235.603 111.985 236.023 111.899 236.487 111.899C236.956 111.899 237.373 111.983 237.737 112.151C238.102 112.317 238.391 112.544 238.604 112.833C238.819 113.122 238.933 113.45 238.945 113.817H238.093Z" fill="#888EA8"/>
<path fill-rule="evenodd" clip-rule="evenodd" d="M188.841 90.3418C188.841 93.433 191.375 95.9497 194.487 95.9497C197.595 95.9497 200.128 93.433 200.128 90.3418C200.128 88.6887 199.4 87.2011 198.252 86.1763L199.072 84.9488L203.519 90.817C203.669 91.0318 203.911 91.1436 204.16 91.1436H206.644C207.035 93.8587 209.377 95.9496 212.223 95.9496C215.335 95.9496 217.869 93.433 217.869 90.3418C217.869 87.2506 215.335 84.7381 212.223 84.7381C211.241 84.7381 210.321 84.9861 209.514 85.4242L207.788 83.1348H208.012C208.453 83.1348 208.82 82.7711 208.82 82.333C208.82 81.8949 208.453 81.5312 208.012 81.5312H205.774V83.1345H198.123L198.144 79.4317H200.765C201.206 79.4317 201.572 79.068 201.572 78.6299C201.572 78.1918 201.206 77.8281 200.765 77.8281H197.54C197.12 77.8281 196.892 77.9109 196.875 78.1793L196.904 85.2874C196.176 84.9361 195.356 84.7377 194.487 84.7377C191.375 84.7377 188.841 87.2502 188.841 90.3414L188.841 90.3418ZM204.239 89.7839L200.183 84.4116H206.944L208.337 86.2588C207.393 87.1804 206.761 88.4117 206.561 89.7839H204.239Z" fill="#282B3A"/>
<path d="M192.745 79.7357V79.6845L192.956 79.535C193.16 79.3905 193.413 79.3262 193.668 79.3719C193.921 79.4172 194.133 79.5618 194.279 79.7521C194.279 79.7521 194.279 79.7522 194.279 79.7522L202.572 90.5279C202.572 90.528 202.572 90.5281 202.572 90.5282C202.699 90.6921 202.776 90.8872 202.805 91.087C202.833 91.287 202.814 91.4942 202.746 91.6858C202.679 91.8772 202.562 92.055 202.397 92.1875C202.23 92.3214 202.023 92.402 201.799 92.4019C201.799 92.4019 201.799 92.4019 201.799 92.4019H198.995L200.706 99.1999C200.706 99.2 200.706 99.2002 200.706 99.2003C200.763 99.4268 200.756 99.6689 200.685 99.8918L200.213 99.7412L200.685 99.8918C200.614 100.115 200.477 100.322 200.276 100.464C200.073 100.61 199.82 100.674 199.564 100.629C199.31 100.584 199.098 100.439 198.952 100.248L190.659 89.4726L192.745 79.7357ZM192.745 79.7357C192.656 79.8475 192.589 79.9756 192.546 80.1092C192.475 80.3323 192.468 80.5748 192.525 80.8015C192.525 80.8016 192.525 80.8017 192.525 80.8018L194.236 87.5986H191.432C191.432 87.5986 191.432 87.5986 191.432 87.5986C191.209 87.5985 191.001 87.6792 190.834 87.813C190.669 87.9455 190.552 88.1234 190.485 88.3147C190.417 88.5063 190.398 88.7135 190.427 88.9135C190.455 89.1133 190.532 89.3085 190.659 89.4723L192.745 79.7357Z" fill="#FFBF25" stroke="white"/>
<path d="M269.793 97.8145H266.184V83.7754L263.242 84.8535L262.117 81.9824L266.922 80.2363H269.793V97.8145ZM279.473 98.166C278.16 98.166 277.023 97.8105 276.062 97.0996C275.102 96.3809 274.355 95.3418 273.824 93.9824C273.301 92.6152 273.039 90.959 273.039 89.0137C273.039 87.0762 273.301 85.4277 273.824 84.0684C274.355 82.709 275.102 81.6738 276.062 80.9629C277.023 80.2441 278.16 79.8848 279.473 79.8848C280.793 79.8848 281.934 80.2441 282.895 80.9629C283.855 81.6738 284.598 82.709 285.121 84.0684C285.652 85.4277 285.918 87.0762 285.918 89.0137C285.918 90.959 285.656 92.6152 285.133 93.9824C284.609 95.3418 283.863 96.3809 282.895 97.0996C281.934 97.8105 280.793 98.166 279.473 98.166ZM279.473 95.0137C280.348 95.0137 281.023 94.4902 281.5 93.4434C281.984 92.3965 282.227 90.9238 282.227 89.0254C282.227 87.1191 281.984 85.6465 281.5 84.6074C281.023 83.5605 280.348 83.0371 279.473 83.0371C278.613 83.0371 277.941 83.5605 277.457 84.6074C276.973 85.6465 276.73 87.1191 276.73 89.0254C276.73 90.9238 276.973 92.3965 277.457 93.4434C277.941 94.4902 278.613 95.0137 279.473 95.0137Z" fill="#282B3A"/>
<path d="M269.566 119.271V111.999H272.024C272.594 111.999 273.061 112.102 273.423 112.308C273.787 112.511 274.057 112.787 274.233 113.135C274.408 113.483 274.495 113.871 274.495 114.3C274.495 114.728 274.408 115.118 274.233 115.468C274.06 115.819 273.792 116.098 273.43 116.306C273.068 116.512 272.604 116.615 272.038 116.615H270.277V115.834H272.01C272.4 115.834 272.714 115.767 272.951 115.632C273.187 115.497 273.359 115.314 273.466 115.085C273.574 114.853 273.629 114.591 273.629 114.3C273.629 114.009 273.574 113.748 273.466 113.519C273.359 113.289 273.186 113.109 272.947 112.979C272.708 112.846 272.391 112.78 271.995 112.78H270.447V119.271H269.566ZM275.914 119.271V111.999H276.795V118.49H280.175V119.271H275.914ZM282.296 119.271H281.373L284.043 111.999H284.953L287.623 119.271H286.7L284.526 113.149H284.47L282.296 119.271ZM282.637 116.431H286.359V117.212H282.637V116.431ZM294.266 114.271H293.386C293.334 114.018 293.242 113.796 293.112 113.604C292.984 113.412 292.828 113.251 292.643 113.121C292.461 112.988 292.259 112.889 292.036 112.823C291.814 112.756 291.582 112.723 291.34 112.723C290.9 112.723 290.501 112.834 290.143 113.057C289.788 113.28 289.505 113.607 289.295 114.041C289.086 114.474 288.982 115.005 288.982 115.635C288.982 116.265 289.086 116.796 289.295 117.23C289.505 117.663 289.788 117.991 290.143 118.213C290.501 118.436 290.9 118.547 291.34 118.547C291.582 118.547 291.814 118.514 292.036 118.448C292.259 118.381 292.461 118.283 292.643 118.153C292.828 118.02 292.984 117.858 293.112 117.666C293.242 117.472 293.334 117.25 293.386 116.999H294.266C294.2 117.37 294.079 117.703 293.904 117.997C293.729 118.29 293.511 118.54 293.251 118.746C292.99 118.95 292.698 119.105 292.374 119.211C292.052 119.318 291.707 119.371 291.34 119.371C290.72 119.371 290.168 119.219 289.685 118.916C289.202 118.613 288.822 118.182 288.545 117.624C288.268 117.065 288.13 116.402 288.13 115.635C288.13 114.868 288.268 114.205 288.545 113.646C288.822 113.088 289.202 112.657 289.685 112.354C290.168 112.051 290.72 111.899 291.34 111.899C291.707 111.899 292.052 111.953 292.374 112.059C292.698 112.166 292.99 112.322 293.251 112.528C293.511 112.731 293.729 112.98 293.904 113.274C294.079 113.565 294.2 113.897 294.266 114.271ZM295.689 119.271V111.999H300.079V112.78H296.57V115.237H299.851V116.019H296.57V118.49H300.135V119.271H295.689ZM305.643 113.817C305.601 113.457 305.428 113.178 305.125 112.979C304.822 112.78 304.45 112.681 304.01 112.681C303.688 112.681 303.406 112.733 303.165 112.837C302.925 112.941 302.738 113.084 302.603 113.267C302.471 113.449 302.405 113.656 302.405 113.888C302.405 114.082 302.451 114.249 302.543 114.389C302.638 114.526 302.759 114.641 302.905 114.733C303.052 114.823 303.206 114.898 303.367 114.957C303.528 115.014 303.676 115.06 303.811 115.095L304.55 115.294C304.739 115.344 304.95 115.413 305.182 115.5C305.416 115.588 305.64 115.707 305.853 115.859C306.068 116.008 306.246 116.2 306.385 116.434C306.525 116.669 306.595 116.956 306.595 117.297C306.595 117.69 306.492 118.045 306.286 118.362C306.082 118.68 305.784 118.932 305.391 119.119C305.001 119.306 304.526 119.399 303.967 119.399C303.446 119.399 302.995 119.315 302.614 119.147C302.235 118.979 301.937 118.745 301.719 118.444C301.504 118.143 301.382 117.794 301.353 117.396H302.263C302.286 117.671 302.379 117.898 302.54 118.078C302.703 118.256 302.909 118.388 303.157 118.476C303.408 118.561 303.678 118.604 303.967 118.604C304.303 118.604 304.605 118.549 304.873 118.441C305.14 118.329 305.352 118.175 305.508 117.979C305.665 117.78 305.743 117.548 305.743 117.283C305.743 117.041 305.675 116.845 305.54 116.693C305.405 116.542 305.228 116.419 305.008 116.324C304.787 116.229 304.55 116.146 304.294 116.075L303.399 115.82C302.831 115.656 302.381 115.423 302.05 115.12C301.718 114.817 301.552 114.421 301.552 113.931C301.552 113.523 301.662 113.168 301.883 112.865C302.105 112.56 302.403 112.323 302.777 112.155C303.154 111.985 303.574 111.899 304.038 111.899C304.507 111.899 304.924 111.983 305.288 112.151C305.653 112.317 305.942 112.544 306.155 112.833C306.37 113.122 306.484 113.45 306.496 113.817H305.643Z" fill="#888EA8"/>
<path d="M296.092 97.7715V80.1934H302.104C303.58 80.1934 304.854 80.4355 305.924 80.9199C307.002 81.3965 307.83 82.0801 308.408 82.9707C308.987 83.8535 309.276 84.9082 309.276 86.1348C309.276 87.3613 308.987 88.4238 308.408 89.3223C307.83 90.2129 307.006 90.9004 305.936 91.3848C304.873 91.8691 303.608 92.1113 302.139 92.1113H299.701V97.7715H296.092ZM299.701 88.9473H301.764C302.99 88.9473 303.932 88.7051 304.588 88.2207C305.252 87.7285 305.584 87.0332 305.584 86.1348C305.584 85.252 305.252 84.5684 304.588 84.084C303.932 83.5918 302.99 83.3457 301.764 83.3457H299.701V88.9473Z" fill="#282B3A"/>
<defs>
<filter id="filter0_d_507_8868" x="0" y="0" width="339" height="146" filterUnits="userSpaceOnUse" color-interpolation-filters="sRGB">
<feFlood flood-opacity="0" result="BackgroundImageFix"/>
<feColorMatrix in="SourceAlpha" type="matrix" values="0 0 0 0 0 0 0 0 0 0 0 0 0 0 0 0 0 0 127 0" result="hardAlpha"/>
<feMorphology radius="1" operator="erode" in="SourceAlpha" result="effect1_dropShadow_507_8868"/>
<feOffset dx="1" dy="3"/>
<feGaussianBlur stdDeviation="2"/>
<feComposite in2="hardAlpha" operator="out"/>
<feColorMatrix type="matrix" values="0 0 0 0 0 0 0 0 0 0 0 0 0 0 0 0 0 0 0.25 0"/>
<feBlend mode="normal" in2="BackgroundImageFix" result="effect1_dropShadow_507_8868"/>
<feBlend mode="normal" in="SourceGraphic" in2="effect1_dropShadow_507_8868" result="shape"/>
</filter>
</defs>
</svg>
