<svg width="461" height="304" viewBox="0 0 461 304" fill="none" xmlns="http://www.w3.org/2000/svg">
<line x1="326.939" y1="135.939" x2="334.939" y2="127.939" stroke="#282B3A" stroke-width="3"/>
<path d="M314.094 77.0051L334.11 129.671C347.006 132.676 381.683 125.4 389.193 121.294C408.098 110.959 405.583 78.1023 403.317 57.0002L314.094 77.0051Z" fill="#282B3A"/>
<line x1="313.569" y1="91.5633" x2="323.569" y2="88.5633" stroke="#282B3A" stroke-width="3"/>
<line x1="331.915" y1="140.88" x2="341.88" y2="130.085" stroke="#282B3A" stroke-width="3" stroke-linecap="round"/>
<circle cx="375.529" cy="219.357" r="79.6431" fill="#F7F7F7" fill-opacity="0.45" stroke="#28283A" stroke-width="10"/>
<circle cx="83.451" cy="220.549" r="78.451" fill="#F7F7F7" fill-opacity="0.45" stroke="#28283A" stroke-width="10"/>
<path d="M173.912 123.984L164.374 100.737L166.163 98.3529V95.9686H163.182V98.949L151.261 101.929L153.049 106.698L159.606 107.89L167.355 126.965L173.912 123.984Z" fill="#A2A2A2"/>
<path d="M302.665 86.4314L301.472 92.3922L303.857 97.1608L305.645 97.7569L315.182 94.1804V91.7961L312.798 86.4314L310.414 85.2392L302.665 86.4314Z" fill="#2E2D44"/>
<path d="M257.959 11.3255C255.987 14.8206 256.014 16.7579 257.959 20.2667H284.782C287.121 17.8518 287.545 16.0412 286.57 11.9216L257.959 11.3255Z" fill="#2E2D44"/>
<path d="M189.41 266.447H182.257V274.196H201.331V266.447H197.159H189.41Z" fill="#2E2D44"/>
<path d="M195.37 249.757L189.41 266.447H197.159L201.331 250.949L208.484 231.278L211.465 227.702V223.529L206.1 220.549L203.119 223.529V229.49L195.37 249.757Z" fill="#A1A1A1"/>
<path d="M316.374 128.157V133.522L319.355 134.118L327.7 131.733L328.296 126.965L327.7 125.176H325.912L316.374 128.157Z" fill="#2E2D44"/>
<path d="M293.723 10.1333L296.108 6.55686L292.531 0H284.782L281.802 5.36471L286.57 9.53725L293.723 10.1333Z" fill="#A1A1A1"/>
<path d="M293.723 12.5176V10.1333L286.57 9.53725V11.9216L293.723 12.5176Z" fill="#696969"/>
<path d="M284.782 20.2667L289.551 24.4392L274.053 39.9373H278.821L280.61 35.1686L287.166 29.8039H293.723L298.492 24.4392L294.319 22.0549V19.0745H300.876L305.645 24.4392L303.857 49.4745L293.723 60.2039L302.665 86.4314L310.414 85.2392L301.472 63.1843L308.625 52.4549L312.798 27.4196L305.645 14.902L293.723 12.5176L286.57 11.9216C287.545 16.0412 287.121 17.8518 284.782 20.2667Z" fill="#949596"/>
<path fill-rule="evenodd" clip-rule="evenodd" d="M305.645 97.7569V101.929L271.668 144.847L224.578 173.459L201.331 181.804L195.37 181.208L177.488 131.733V127.561L175.7 123.984H173.912L167.355 126.965L158.414 132.925L98.2096 204.455L104.766 204.234L167.951 134.714L192.986 201.26L204.312 200.878L198.947 189.553L227.559 179.42L277.629 147.231L310.414 107.89L312.798 115.639L277.629 164.518L224.578 207.435C218.53 202.469 214.223 200.863 204.312 200.878L192.986 201.26L104.766 204.234L98.2096 204.455H96.4214H81.5194C68.271 215.606 68.1281 221.903 81.5194 233.067L167.951 246.18L195.37 249.757L203.119 229.49V223.529L206.1 220.549L211.465 223.529V227.702L208.484 231.278L201.331 250.949H213.849C230.345 242.037 234.946 234.788 230.539 215.78L281.802 173.459L315.182 125.773L316.374 128.157L325.912 125.176L315.182 94.1804L305.645 97.7569ZM124.437 213.992L119.668 218.165L177.488 220.549L173.912 215.184L124.437 213.992ZM177.488 225.914L119.668 223.529L122.053 227.702L173.912 230.682L177.488 225.914Z" fill="#4F48ED"/>
<path d="M319.355 134.118L321.739 146.039L349.755 194.322L374.79 223.529L382.539 218.761L370.021 208.627L355.716 191.341L344.986 173.459L327.7 131.733L319.355 134.118Z" fill="#4F48ED"/>
<path d="M166.163 95.9686L190.602 84.6431L187.621 75.702H128.61L124.437 79.2784L123.841 88.8157L149.472 94.7765L163.182 95.9686H166.163Z" fill="#2E2D44"/>
<circle cx="375.529" cy="219.357" r="7.15294" fill="#434748"/>
<ellipse cx="357.882" cy="193.478" rx="17.8824" ry="18.4784" fill="#FFBF25" fill-opacity="0.5"/>
<ellipse cx="357.882" cy="193.478" rx="12.3801" ry="12.7928" fill="#FFBF25"/>
<path d="M353.979 198V196.886L357.425 193.317C357.793 192.929 358.096 192.589 358.335 192.298C358.576 192.003 358.757 191.723 358.876 191.457C358.996 191.192 359.055 190.911 359.055 190.612C359.055 190.274 358.976 189.982 358.817 189.737C358.658 189.489 358.441 189.298 358.165 189.165C357.89 189.03 357.58 188.962 357.236 188.962C356.871 188.962 356.553 189.036 356.281 189.185C356.009 189.335 355.801 189.545 355.655 189.817C355.509 190.089 355.436 190.407 355.436 190.771H353.969C353.969 190.152 354.112 189.61 354.397 189.146C354.682 188.682 355.073 188.322 355.57 188.067C356.067 187.808 356.633 187.679 357.266 187.679C357.905 187.679 358.469 187.807 358.956 188.062C359.446 188.314 359.829 188.658 360.104 189.096C360.379 189.53 360.517 190.021 360.517 190.567C360.517 190.945 360.446 191.315 360.303 191.676C360.164 192.037 359.92 192.44 359.572 192.884C359.224 193.325 358.741 193.86 358.121 194.49L356.097 196.608V196.683H360.681V198H353.979Z" fill="#282B3A"/>
<circle cx="171.882" cy="93.8824" r="17.8824" fill="#FFBF25" fill-opacity="0.5"/>
<circle cx="171.882" cy="93.882" r="12.3801" fill="#FFBF25"/>
<path d="M171.524 99.1392C170.841 99.1392 170.232 99.0215 169.695 98.7862C169.161 98.5509 168.738 98.2244 168.427 97.8068C168.119 97.3859 167.953 96.8987 167.93 96.3452H169.491C169.511 96.6468 169.612 96.9086 169.794 97.1307C169.98 97.3494 170.222 97.5185 170.52 97.6378C170.818 97.7571 171.15 97.8168 171.514 97.8168C171.915 97.8168 172.27 97.7472 172.578 97.608C172.89 97.4687 173.133 97.2749 173.309 97.0263C173.485 96.7744 173.572 96.4844 173.572 96.1562C173.572 95.8149 173.485 95.5149 173.309 95.2564C173.137 94.9946 172.883 94.7891 172.548 94.6399C172.217 94.4908 171.816 94.4162 171.345 94.4162H170.485V93.1634H171.345C171.723 93.1634 172.054 93.0954 172.339 92.9595C172.628 92.8236 172.853 92.6347 173.016 92.3928C173.178 92.1475 173.259 91.8608 173.259 91.5327C173.259 91.2178 173.188 90.9444 173.045 90.7124C172.906 90.477 172.707 90.2931 172.449 90.1605C172.194 90.0279 171.892 89.9616 171.544 89.9616C171.213 89.9616 170.903 90.023 170.614 90.1456C170.329 90.2649 170.097 90.4373 169.918 90.6626C169.739 90.8847 169.643 91.1515 169.63 91.4631H168.143C168.16 90.9129 168.322 90.429 168.631 90.0114C168.942 89.5937 169.353 89.2673 169.864 89.032C170.374 88.7966 170.941 88.679 171.564 88.679C172.217 88.679 172.78 88.8066 173.254 89.0618C173.732 89.3137 174.099 89.6501 174.358 90.071C174.62 90.492 174.749 90.9527 174.746 91.4531C174.749 92.0232 174.59 92.5071 174.268 92.9048C173.95 93.3026 173.526 93.5694 172.996 93.7053V93.7848C173.672 93.8875 174.196 94.156 174.567 94.5902C174.941 95.0244 175.127 95.563 175.124 96.206C175.127 96.7661 174.971 97.2682 174.656 97.7124C174.345 98.1565 173.919 98.5062 173.379 98.7614C172.838 99.0133 172.22 99.1392 171.524 99.1392Z" fill="#282B3A"/>
<circle cx="208.478" cy="245.478" r="18.4784" fill="#FFBF25" fill-opacity="0.5"/>
<circle cx="208.478" cy="245.478" r="12.7928" fill="#FFBF25"/>
<path d="M203.766 248.011V246.768L208.165 239.818H209.145V241.648H208.523L205.376 246.629V246.709H211.407V248.011H203.766ZM208.593 250V247.634L208.603 247.067V239.818H210.06V250H208.593Z" fill="#282B3A"/>
<circle cx="315.478" cy="38.4784" r="18.4784" fill="#FFBF25" fill-opacity="0.5"/>
<circle cx="315.478" cy="38.4783" r="12.7928" fill="#FFBF25"/>
<path d="M316.842 32.8182V43H315.301V34.3594H315.241L312.805 35.9503V34.4787L315.346 32.8182H316.842Z" fill="#282B3A"/>
</svg>
