<svg width="30" height="20" viewBox="0 0 30 20" fill="none" xmlns="http://www.w3.org/2000/svg">
<path d="M29.3731 3.12932C29.0281 1.89755 28.0115 0.927448 26.7208 0.598229C24.3813 0 15 0 15 0C15 0 5.61879 0 3.27919 0.598229C1.98847 0.9275 0.971904 1.89755 0.626879 3.12932C0 5.36198 0 10.0202 0 10.0202C0 10.0202 0 14.6784 0.626879 16.9111C0.971904 18.1429 1.98847 19.0726 3.27919 19.4018C5.61879 20 15 20 15 20C15 20 24.3812 20 26.7208 19.4018C28.0115 19.0726 29.0281 18.1429 29.3731 16.9111C30 14.6784 30 10.0202 30 10.0202C30 10.0202 30 5.36198 29.3731 3.12932ZM11.9318 14.2495V5.79088L19.7727 10.0203L11.9318 14.2495Z" fill="white"/>
</svg>
