<svg width="742" height="581" viewBox="0 0 742 581" fill="none" xmlns="http://www.w3.org/2000/svg">
<path fill-rule="evenodd" clip-rule="evenodd" d="M0 400.564C0 499.513 78.2062 580.069 174.268 580.069C270.201 580.069 348.409 499.513 348.409 400.564C348.409 347.648 325.935 300.028 290.491 267.223L315.794 227.932L453.079 415.774C457.705 422.649 465.154 426.228 472.853 426.228H549.519C561.594 513.136 633.893 580.069 721.732 580.069C817.794 580.069 896 499.512 896 400.563C896 301.614 817.794 221.189 721.732 221.189C691.423 221.189 663.039 229.127 638.131 243.15L584.833 169.865H591.766C605.38 169.865 616.682 158.224 616.682 144.201C616.682 130.177 605.38 118.536 591.766 118.536H522.676V169.857H286.506L287.15 51.3296H368.058C381.672 51.3296 392.974 39.6887 392.974 25.6648C392.974 11.641 381.672 0 368.058 0H268.529C255.559 0 248.499 2.64847 247.982 11.2425L248.885 238.77C226.411 227.527 201.109 221.175 174.273 221.175C78.2105 221.175 0.00422201 301.6 0.00422201 400.549L0 400.564ZM475.292 382.704L350.083 210.738H558.777L601.798 269.864C572.649 299.365 553.127 338.78 546.96 382.704H475.292Z" fill="white"/>
</svg>
