<svg width="402" height="247" viewBox="0 0 402 247" fill="none" xmlns="http://www.w3.org/2000/svg">
<path fill-rule="evenodd" clip-rule="evenodd" d="M192 207.613C192 228.762 175.242 245.979 154.657 245.979C134.1 245.979 117.341 228.762 117.341 207.613C117.341 196.303 122.157 186.126 129.752 179.114L124.33 170.716L94.9117 210.864C93.9203 212.334 92.3242 213.098 90.6744 213.098H74.2458C71.6583 231.674 56.1659 245.979 37.3432 245.979C16.7585 245.979 0 228.762 0 207.613C0 186.464 16.7585 169.275 37.3432 169.275C43.8378 169.275 49.9201 170.972 55.2576 173.969L66.6786 158.306H65.193C62.2756 158.306 59.8539 155.818 59.8539 152.82C59.8539 149.823 62.2756 147.335 65.193 147.335H79.998V158.304H130.606L130.468 132.971H113.131C110.213 132.971 107.791 130.483 107.791 127.485C107.791 124.488 110.213 122 113.131 122H134.458C137.237 122 138.75 122.566 138.861 124.403L138.668 173.033C143.483 170.63 148.905 169.272 154.656 169.272C175.241 169.272 191.999 186.462 191.999 207.61L192 207.613ZM90.1518 203.796L116.982 167.041H72.262L63.0433 179.679C69.2895 185.984 73.4728 194.408 74.7942 203.796H90.1518Z" fill="#282B3A"/>
<path fill-rule="evenodd" clip-rule="evenodd" d="M282 207.613C282 228.762 265.416 245.979 245.046 245.979C224.703 245.979 208.119 228.762 208.119 207.613C208.119 196.303 212.884 186.126 220.4 179.114L215.035 170.716L185.923 210.864C184.942 212.334 183.363 213.098 181.73 213.098H165.472C162.912 231.674 147.581 245.979 128.954 245.979C108.584 245.979 92 228.762 92 207.613C92 186.464 108.584 169.275 128.954 169.275C135.381 169.275 141.4 170.972 146.682 173.969L157.984 158.306H156.514C153.627 158.306 151.23 155.818 151.23 152.82C151.23 149.823 153.627 147.335 156.514 147.335H171.165V158.304H221.245L221.109 132.971H203.952C201.065 132.971 198.669 130.483 198.669 127.485C198.669 124.488 201.065 122 203.952 122H225.057C227.808 122 229.305 122.566 229.414 124.403L229.223 173.033C233.989 170.63 239.354 169.272 245.045 169.272C265.415 169.272 281.999 186.462 281.999 207.61L282 207.613ZM181.213 203.796L207.764 167.041H163.509L154.387 179.679C160.568 185.984 164.707 194.408 166.015 203.796H181.213Z" fill="#4F48ED"/>
<path fill-rule="evenodd" clip-rule="evenodd" d="M374 208.613C374 229.762 357.154 246.979 336.462 246.979C315.798 246.979 298.952 229.762 298.952 208.613C298.952 197.303 303.793 187.126 311.428 180.114L305.977 171.716L276.406 211.864C275.409 213.334 273.805 214.098 272.147 214.098H255.633C253.032 232.674 237.458 246.979 218.538 246.979C197.846 246.979 181 229.762 181 208.613C181 187.464 197.846 170.275 218.538 170.275C225.066 170.275 231.18 171.972 236.545 174.969L248.026 159.306H246.533C243.6 159.306 241.166 156.818 241.166 153.82C241.166 150.823 243.6 148.335 246.533 148.335H261.415V159.304H312.286L312.147 133.971H294.72C291.787 133.971 289.353 131.483 289.353 128.485C289.353 125.488 291.787 123 294.72 123H316.158C318.952 123 320.473 123.566 320.584 125.403L320.39 174.033C325.231 171.63 330.681 170.272 336.461 170.272C357.153 170.272 373.999 187.462 373.999 208.61L374 208.613ZM271.621 204.796L298.592 168.041H253.638L244.372 180.679C250.65 186.984 254.855 195.408 256.184 204.796H271.621Z" fill="#FFBF25"/>
<path d="M359 21.5C359 9.62588 368.626 0 380.5 0C392.374 0 402 9.62588 402 21.5V63.5C402 75.3741 392.374 85 380.5 85C368.626 85 359 75.3741 359 63.5V21.5Z" fill="#282B3A"/>
</svg>
