<svg width="110" height="112" viewBox="0 0 110 112" fill="none" xmlns="http://www.w3.org/2000/svg">
<path d="M71 54.9748C72.3766 63.89 78.006 65.1632 86.006 60.312M71 54.9748C66.5472 55.0698 62.6582 55.971 60 60.312M71 54.9748C74.313 56.4716 84.0836 57.2276 85 48.3122C85 45.3122 83.8682 40.8066 76.5088 42.2928C70.532 45.2644 69.1744 50.7694 71 54.9748Z" stroke="#F4F4F4" stroke-width="3.5" stroke-linecap="round" stroke-linejoin="round"/>
<path d="M65.6131 51.4061C71.9537 46.9035 86.6649 35.7951 89.0481 27.8023C91.9385 18.1087 86.5887 7.94961 77.1045 5.12173C67.6205 2.29385 57.5807 7.86427 54.6903 17.558C52.3071 25.5507 58.5327 42.9017 61.3721 50.1415C62.0555 51.8689 64.0955 52.4771 65.6131 51.4061ZM70.1241 28.5331C66.9657 27.5913 65.1803 24.2009 66.1429 20.9727C67.1055 17.7446 70.4559 15.8857 73.6143 16.8274C76.7727 17.7691 78.5581 21.1593 77.5955 24.3875C76.6329 27.6157 73.2825 29.4747 70.1241 28.5331Z" fill="#FFBF25"/>
<path d="M26.0474 28.2426C26.0474 28.2426 19.9332 66 28.8366 66C37.7402 66 36.6272 42.2004 42.7482 42.2004C48.8694 42.2004 47.2332 75.7366 59.9986 51.9896C72.764 28.2426 68.7496 14.8618 86 21.8538" stroke="#F4F4F4" stroke-width="7" stroke-linecap="round" stroke-linejoin="round"/>
<path d="M26.0474 28.2426C26.0474 28.2426 19.9332 66 28.8366 66C37.7402 66 36.6272 42.2004 42.7482 42.2004C48.8694 42.2004 47.2332 75.7366 59.9986 51.9896C72.764 28.2426 68.7496 14.8618 86 21.8538" stroke="#282B3A" stroke-width="2" stroke-linecap="round" stroke-linejoin="round" stroke-dasharray="6 6"/>
<path d="M2.5 99.9999V64.8438H15.8828C19.9297 64.8438 23.0546 65.664 25.2578 67.3046C27.461 68.9454 28.5624 71.2655 28.5624 74.2655C28.5624 75.9375 28.1876 77.4295 27.4376 78.7421C26.6876 80.0389 25.6718 81.0545 24.3906 81.7889C26.2968 82.4139 27.7734 83.4295 28.8204 84.8359C29.8672 86.2421 30.3906 87.9687 30.3906 90.0155C30.3906 92.0467 29.8984 93.8123 28.914 95.3123C27.9296 96.7967 26.5312 97.9531 24.7188 98.7811C22.9062 99.5937 20.7656 99.9999 18.2969 99.9999H2.5ZM11.7812 79.0233H15.25C16.5781 79.0233 17.6016 78.7577 18.3203 78.2265C19.0547 77.6795 19.4219 76.9061 19.4219 75.9061C19.4219 74.9843 19.0547 74.2577 18.3203 73.7265C17.5859 73.1953 16.5625 72.9296 15.25 72.9296H11.7812V79.0233ZM11.7812 91.9139H15.8828C16.9453 91.9139 17.8516 91.7967 18.6016 91.5623C19.3516 91.3123 19.9219 90.9609 20.3124 90.5077C20.7032 90.0389 20.8984 89.4765 20.8984 88.8203C20.8984 88.1639 20.7266 87.6171 20.3828 87.1796C20.039 86.7266 19.5312 86.3905 18.8594 86.1717C18.2031 85.9375 17.3984 85.8203 16.4453 85.8203H11.7812V91.9139ZM43.1876 64.8438H33.9062V99.9999H43.1876V64.8438ZM57.1562 99.9999H47.875V64.8438H57.1562V79.5389C57.9844 78.3203 58.7734 77.1953 59.5234 76.1639C60.2734 75.1327 60.9062 74.2967 61.4218 73.6561L68.4296 64.8438H79.3516L66.3906 81.1327L81.6954 99.9999H69.7188L60.461 88.5859L57.1562 92.7577V99.9999ZM84.0624 99.9999V64.8438H107.5V72.9296H93.3438V78.3671H106.562V86.4531H93.3438V91.9139H107.734V99.9999H84.0624Z" fill="#F4F4F4"/>
</svg>
