<svg width="77" height="79" viewBox="0 0 77 79" fill="none" xmlns="http://www.w3.org/2000/svg">
<path d="M49.7 38.7768C50.6636 45.0652 54.6042 45.9633 60.2042 42.5415M49.7 38.7768C46.583 38.8438 43.8607 39.4795 42 42.5415M49.7 38.7768C52.0191 39.8326 58.8585 40.3659 59.5 34.0773C59.5 31.9613 58.7077 28.7832 53.5562 29.8315C49.3724 31.9275 48.4221 35.8105 49.7 38.7768Z" stroke="#282B3A" stroke-width="3" stroke-linecap="round" stroke-linejoin="round"/>
<path d="M45.9293 36.2599C50.3677 33.084 60.6655 25.2486 62.3338 19.6108C64.3571 12.7733 60.6122 5.60755 53.9732 3.61289C47.3344 1.61822 40.3066 5.54736 38.2833 12.3849C36.6151 18.0226 40.973 30.2613 42.9606 35.3679C43.4389 36.5864 44.8669 37.0154 45.9293 36.2599ZM49.087 20.1263C46.8761 19.462 45.6263 17.0705 46.3001 14.7935C46.9739 12.5165 49.3192 11.2053 51.5301 11.8696C53.741 12.5338 54.9908 14.9251 54.3169 17.2022C53.6431 19.4792 51.2978 20.7904 49.087 20.1263Z" fill="#FFBF25"/>
<path d="M18.2332 19.9214C18.2332 19.9214 13.9533 46.5539 20.1857 46.5539C26.4182 46.5539 25.6391 29.7666 29.9238 29.7666C34.2086 29.7666 33.0633 53.4216 41.9991 36.6715C50.9348 19.9214 48.1248 10.4832 60.2 15.415" stroke="#282B3A" stroke-width="5" stroke-linecap="round" stroke-linejoin="round"/>
<path d="M18.2332 19.9214C18.2332 19.9214 13.9533 46.5539 20.1857 46.5539C26.4182 46.5539 25.6391 29.7666 29.9238 29.7666C34.2086 29.7666 33.0633 53.4216 41.9991 36.6715C50.9349 19.9214 48.1248 10.4832 60.2001 15.415" stroke="white" stroke-width="1.5" stroke-linecap="round" stroke-linejoin="round" stroke-dasharray="6 6"/>
<path d="M1.75 70.536V45.7383H11.118C13.9508 45.7383 16.1382 46.3168 17.6805 47.474C19.2227 48.6314 19.9937 50.2679 19.9937 52.384C19.9937 53.5634 19.7313 54.6158 19.2063 55.5416C18.6813 56.4563 17.9703 57.1727 17.0734 57.6907C18.4078 58.1315 19.4414 58.8479 20.1743 59.8399C20.907 60.8318 21.2734 62.0497 21.2734 63.4934C21.2734 64.9261 20.9289 66.1715 20.2398 67.2295C19.5507 68.2766 18.5718 69.0922 17.3032 69.6763C16.0343 70.2494 14.5359 70.536 12.8078 70.536H1.75ZM8.24687 55.74H10.675C11.6047 55.74 12.3211 55.5526 12.8242 55.1779C13.3383 54.7921 13.5953 54.2466 13.5953 53.5412C13.5953 52.891 13.3383 52.3785 12.8242 52.0038C12.3102 51.6291 11.5938 51.4417 10.675 51.4417H8.24687V55.74ZM8.24687 64.8324H11.118C11.8617 64.8324 12.4961 64.7498 13.0211 64.5844C13.5461 64.4081 13.9453 64.1602 14.2187 63.8406C14.4922 63.5099 14.6289 63.1132 14.6289 62.6503C14.6289 62.1873 14.5086 61.8017 14.268 61.493C14.0273 61.1735 13.6719 60.9365 13.2016 60.7821C12.7422 60.6169 12.1789 60.5343 11.5117 60.5343H8.24687V64.8324ZM30.2313 45.7383H23.7343V70.536H30.2313V45.7383ZM40.0093 70.536H33.5125V45.7383H40.0093V56.1036C40.5891 55.2441 41.1414 54.4506 41.6664 53.7231C42.1914 52.9957 42.6343 52.406 42.9953 51.9542L47.9007 45.7383H55.5461L46.4734 57.2278L57.1868 70.536H48.8032L42.3227 62.485L40.0093 65.4276V70.536ZM58.8437 70.536V45.7383H75.25V51.4417H65.3407V55.2771H74.5937V60.9806H65.3407V64.8324H75.4141V70.536H58.8437Z" fill="#282B3A"/>
</svg>
